<?xml version="1.0" encoding="utf-8"?>
<!-- Generator: Adobe Illustrator 26.3.1, SVG Export Plug-In . SVG Version: 6.00 Build 0)  -->
<svg version="1.1" id="Capa_1" xmlns="http://www.w3.org/2000/svg" xmlns:xlink="http://www.w3.org/1999/xlink" x="0px" y="0px"
	 viewBox="0 0 214 43" style="enable-background:new 0 0 214 43;" xml:space="preserve">
<style type="text/css">
	.st0{fill:#342E29;}
	.st1{fill-rule:evenodd;clip-rule:evenodd;fill:#342E29;}
</style>
<path class="st0" d="M63.6,18.9c-0.4,1.9-1.2,3.4-2.3,4.4c-0.9,0.8-1.7,1.1-2.4,0.9c-0.7-0.1-1.3-0.8-1.7-1.9
	c-0.4-0.9-0.5-1.8-0.5-2.7c0-0.7,0.1-1.5,0.2-2.2c0.3-1.2,0.8-2.4,1.6-3.5c1-1.4,2-2,3.1-1.8c0.7,0.1,1.3,0.8,1.7,1.9
	c0.4,0.9,0.5,1.8,0.5,2.7C63.8,17.5,63.7,18.3,63.6,18.9z"/>
<path class="st0" d="M42.8,23.3c1.1-1,1.8-2.4,2.3-4.4c0.1-0.7,0.2-1.4,0.2-2.2c0-0.9-0.2-1.8-0.5-2.7c-0.4-1.2-1-1.8-1.7-1.9
	c-1.1-0.2-2.1,0.4-3.1,1.8c-0.8,1.1-1.3,2.3-1.6,3.5c-0.1,0.7-0.2,1.4-0.2,2.2c0,0.9,0.2,1.8,0.5,2.7c0.4,1.2,1,1.8,1.7,1.9
	C41.1,24.4,41.9,24.1,42.8,23.3z"/>
<path class="st1" d="M65.7,0h-59C3,0,0,3,0,6.7v22.4c0,3.7,3,6.7,6.8,6.7h27.9L47.5,43l-2.9-7.1h21.2c3.7,0,6.8-3,6.8-6.7V6.7
	C72.5,3,69.4,0,65.7,0z M5.5,5.2C4.7,5.3,4,5.6,3.6,6.1c-0.4,0.5-0.6,1.2-0.5,2C4.9,19.2,6.5,26.6,8,30.5c0.6,1.4,1.3,2.1,2.1,2
	c1.2-0.1,2.7-1.8,4.5-5.1c0.9-1.9,2.3-4.7,4.3-8.5c1.6,5.6,3.8,9.8,6.5,12.6c0.8,0.8,1.6,1.2,2.3,1.1c0.7-0.1,1.2-0.4,1.6-1.1
	c0.3-0.6,0.4-1.2,0.4-1.9c-0.2-2.7,0.1-6.4,0.8-11.3c0.8-5,1.7-8.5,2.9-10.7c0.2-0.4,0.3-0.9,0.3-1.4c-0.1-0.7-0.4-1.2-0.9-1.7
	c-0.6-0.4-1.2-0.6-1.9-0.6c-0.9,0.1-1.5,0.5-2,1.3C27.1,8.6,25.8,14,25,21.5c-1.1-2.8-2.1-6.2-2.8-10.1c-0.3-1.7-1.1-2.6-2.4-2.5
	c-0.9,0.1-1.6,0.6-2.2,1.8L11.1,23C10,18.7,9,13.5,8.1,7.3C7.9,5.8,7,5.1,5.5,5.2z M67.3,10.8c-1.1-1.9-2.6-3-4.7-3.4
	C62,7.2,61.5,7.1,61,7.1c-2.8,0-5.2,1.5-7,4.4c-1.5,2.5-2.3,5.3-2.3,8.3c0,2.3,0.5,4.2,1.4,5.8c1.1,1.9,2.6,3,4.7,3.4
	c0.6,0.1,1.1,0.2,1.6,0.2c2.9,0,5.2-1.5,7-4.4c1.5-2.5,2.3-5.3,2.3-8.4C68.7,14.3,68.3,12.3,67.3,10.8z M44,7.3
	c2.1,0.4,3.7,1.6,4.7,3.4c0.9,1.6,1.4,3.5,1.4,5.8c0,3-0.8,5.8-2.3,8.4c-1.8,3-4.1,4.4-7,4.4c-0.5,0-1-0.1-1.6-0.2
	c-2.1-0.4-3.7-1.6-4.7-3.4c-0.9-1.6-1.4-3.6-1.4-5.8c0-3,0.8-5.8,2.3-8.3c1.8-3,4.1-4.4,7-4.4C42.9,7.1,43.4,7.2,44,7.3z"/>
<path class="st0" d="M80,10.5c-2,1.9-3,4.4-3,7.4c0,3.2,1,5.8,2.9,7.8c2,2,4.5,3,7.7,3c0.9,0,2-0.1,3.1-0.5v-4.8
	c-1,0.3-1.9,0.4-2.7,0.4c-1.6,0-2.8-0.5-3.8-1.6c-0.9-1.1-1.4-2.5-1.4-4.3c0-1.7,0.5-3.1,1.4-4.1c0.9-1.1,2.1-1.6,3.5-1.6
	c0.9,0,1.9,0.1,3,0.4V8c-1-0.3-2.1-0.4-3.2-0.4C84.5,7.6,82,8.5,80,10.5z M100.6,7.6c-2.7,0-4.9,0.9-6.4,2.7
	c-1.5,1.8-2.3,4.3-2.3,7.6c0,3.5,0.8,6.2,2.3,8.1c1.5,1.9,3.7,2.8,6.6,2.8c2.8,0,5-0.9,6.5-2.8c1.5-1.9,2.3-4.5,2.3-7.9
	c0-3.4-0.8-6-2.3-7.8C105.7,8.5,103.5,7.6,100.6,7.6z M102.9,22.9c-0.5,0.8-1.3,1.2-2.3,1.2c-0.9,0-1.7-0.4-2.2-1.2
	c-0.5-0.8-0.7-2.5-0.7-5c0-3.9,1-5.8,3-5.8c2.1,0,3.1,1.9,3.1,5.9C103.8,20.4,103.5,22.1,102.9,22.9z M124.2,8.1l-1.1,4.5
	c-0.3,1.2-0.5,2.3-0.8,3.5l-0.6,3.1c-0.6-3.1-1.3-6.9-2.3-11.2h-6.9L110,28.2h5.2l1.4-13.9l3.5,13.9h3.7l3.4-13.8l1.5,13.8h5.4
	l-2.7-20.1H124.2z M148.9,8.1l-1.1,4.5c-0.3,1.2-0.5,2.3-0.8,3.5l-0.6,3.1c-0.6-3.1-1.3-6.9-2.3-11.2h-6.9l-2.6,20.1h5.2l1.4-13.9
	l3.5,13.9h3.7l3.3-13.8l1.5,13.8h5.4l-2.7-20.1H148.9z M165.7,20.3h4.8v-4.2h-4.8v-3.7h5.6V8.2h-11v20.1h11.1V24h-5.6V20.3z
	 M186.6,17.1c0.6-0.9,0.9-1.9,0.9-2.8c0-1.9-0.7-3.4-2.2-4.5c-1.5-1.1-3.5-1.7-6.1-1.7h-6.3v20.1h5.5v-9.2h0.1l4.4,9.2h5.7l-4.4-9.1
	C185.2,18.7,186.1,18,186.6,17.1z M178.3,16.8V12c1.3,0,2.2,0.2,2.8,0.6c0.6,0.4,0.8,1.1,0.8,2C181.9,16,180.7,16.7,178.3,16.8z
	 M190.7,10.5c-2,1.9-3,4.4-3,7.4c0,3.2,1,5.8,2.9,7.8c2,2,4.5,3,7.7,3c0.9,0,2-0.1,3.1-0.5v-4.8c-1,0.3-1.9,0.4-2.7,0.4
	c-1.6,0-2.8-0.5-3.8-1.6c-0.9-1.1-1.4-2.5-1.4-4.3c0-1.7,0.5-3.1,1.4-4.1c0.9-1.1,2.1-1.6,3.5-1.6c0.9,0,1.9,0.1,3,0.4V8
	c-1-0.3-2.1-0.4-3.2-0.4C195.2,7.6,192.7,8.5,190.7,10.5z M208.4,20.3h4.8v-4.2h-4.8v-3.7h5.6V8.1h-11v20.1H214V24h-5.6V20.3z"/>
</svg>
