<?xml version="1.0" encoding="utf-8"?>
<!-- Generator: Adobe Illustrator 26.3.1, SVG Export Plug-In . SVG Version: 6.00 Build 0)  -->
<svg version="1.1" id="Capa_1" xmlns="http://www.w3.org/2000/svg" xmlns:xlink="http://www.w3.org/1999/xlink" x="0px" y="0px"
	 viewBox="0 0 106 28" style="enable-background:new 0 0 106 28;" xml:space="preserve">
<style type="text/css">
	.st0{fill-rule:evenodd;clip-rule:evenodd;fill:#342E29;}
</style>
<path class="st0" d="M3.6,0.3C3.2,0.7,3.3,0,1.4,12c-1.3,8.1-1.6,10.4-1.4,10.6c0.4,0.4,4.7,0.4,5.1,0c0.4-0.4,0.4-0.5,0.9-3.8
	c0.3-1.7,0.6-2.9,0.8-3.2c0.3-0.3,0.7-0.4,2.3-0.4c3.8,0,6-0.6,7.8-2.2c1.3-1.2,2.2-2.8,2.6-4.9c0.8-3.9-0.2-6.4-3.2-7.5
	c-1.1-0.4-1.5-0.5-6.8-0.5C4.6,0,3.9,0,3.6,0.3z M62.6,0.4C62.1,0.8,58.7,22,59,22.5c0.2,0.3,0.5,0.4,2.6,0.4c2,0,2.4-0.1,2.7-0.4
	c0.2-0.2,0.5-1.6,0.8-3.4c0.3-1.7,0.6-3.2,0.7-3.4c0.2-0.4,0.5-0.4,3.1-0.5c3.3-0.1,5-0.6,6.5-1.7c1.2-0.9,1.6-1.3,2.3-2.7
	c1.7-3.3,1.6-7.3-0.3-9C75.6,0.3,74,0,67.7,0C63.4,0,62.8,0,62.6,0.4z M101.2,0.3c-0.1,0.1-1,5.2-1.9,11.2c-1.3,8-1.7,11-1.5,11.2
	c0.2,0.2,0.8,0.3,2.2,0.3c1.6,0,2.1-0.1,2.4-0.4c0.4-0.3,0.6-1.7,2.1-11.2c1.2-7.8,1.7-10.9,1.5-11.1C105.7-0.1,101.5-0.1,101.2,0.3
	z M12.4,4.9c0.8,0.4,1.1,1,1.1,2.2c0,1.6-0.8,2.8-2.2,3.3C11,10.5,9.9,10.6,9,10.6H7.4l0.5-2.8c0.2-1.5,0.5-2.9,0.6-3
	C8.6,4.5,11.7,4.6,12.4,4.9z M71.4,4.9c0.4,0.2,0.8,0.5,0.9,0.7c0.4,0.7,0.3,2.5-0.2,3.4c-0.7,1.2-1.4,1.5-3.7,1.6
	c-1.8,0.1-2,0-2-0.3c0-0.4,0.8-5.1,0.9-5.5C67.5,4.5,70.5,4.5,71.4,4.9z M25.6,7.5c-4.4,1.1-7.3,5.4-6.9,9.9
	c0.1,1.6,0.7,2.8,1.7,3.9c1,1.1,1.9,1.5,3.6,1.8c2.1,0.3,4.3-0.2,5.9-1.4c0.4-0.3,0.8-0.6,0.8-0.6c0,0,0,0.3,0,0.6
	c-0.2,1,0.2,1.2,2.4,1.2c1.6,0,2.1-0.1,2.4-0.4c0.4-0.3,0.6-1.1,1.6-7.3c0.9-5.6,1.1-7,0.9-7.3c-0.2-0.2-0.7-0.3-2.6-0.2l-2.3,0.1
	l-0.2,0.7l-0.2,0.7l-0.7-0.6c-0.4-0.3-1-0.7-1.4-0.9C29.2,7.3,26.7,7.2,25.6,7.5z M84.4,7.5C82.8,8,81.5,8.8,80.3,10
	c-2.6,2.7-3.4,6.7-2,9.8c1,2.2,3,3.3,5.7,3.3c1.7,0,3.2-0.4,4.6-1.4l1-0.7l-0.1,0.6c-0.2,1,0.1,1.2,2.5,1.2c1.7,0,2.2-0.1,2.4-0.4
	c0.3-0.3,0.6-2,1.4-7.3c0.6-3.8,1-7.1,1-7.3c-0.1-0.3-0.5-0.3-2.4-0.3c-2.4,0-2.6,0.1-2.8,1l-0.1,0.5l-0.7-0.7
	c-0.4-0.4-1-0.8-1.5-0.9C88,7.3,85.6,7.2,84.4,7.5z M40.1,7.8C39.9,8,40,8.7,42.2,14.9l2.2,6.4l-2.1,2.9c-1.3,1.8-2.1,3.1-2,3.3
	c0.1,0.4,0.2,0.4,2.7,0.4h2.6l6.8-9.8C58.1,9.9,59.1,8.3,59,8c-0.2-0.3-0.5-0.4-2.6-0.4c-2.2,0-2.4,0-2.8,0.5
	c-0.2,0.2-1.6,2.1-3,4.2C49.2,14.4,48,16.1,48,16c0,0-0.6-1.8-1.2-3.9c-0.6-2.1-1.3-4-1.5-4.2c-0.3-0.3-0.7-0.4-2.7-0.4
	C41.3,7.6,40.2,7.7,40.1,7.8z M30.5,12c1,0.8,1.4,1.4,1.4,2.6c0,3.2-3.3,5.3-6.1,4.1c-1.1-0.5-1.7-1.4-1.7-2.8c0-1.9,1-3.4,2.7-4.1
	C27.7,11.3,29.8,11.5,30.5,12z M89.3,11.9c2,1,2.1,4,0.2,5.8c-1.3,1.3-3.3,1.7-4.9,0.9c-1.6-0.8-2.1-2.7-1.1-4.7
	C84.5,11.8,87.2,10.8,89.3,11.9z"/>
</svg>
