<?xml version="1.0" encoding="utf-8"?>
<!-- Generator: Adobe Illustrator 26.3.1, SVG Export Plug-In . SVG Version: 6.00 Build 0)  -->
<svg version="1.1" id="Capa_1" xmlns="http://www.w3.org/2000/svg" xmlns:xlink="http://www.w3.org/1999/xlink" x="0px" y="0px"
	 viewBox="0 0 197 33" style="enable-background:new 0 0 197 33;" xml:space="preserve">
<style type="text/css">
	.st0{fill-rule:evenodd;clip-rule:evenodd;fill:#342E29;}
</style>
<path class="st0" d="M4.4,2.2C5.2,3.4,6.1,5,6.6,5.8l0.8,1.5l-3.7,3.6L0,14.4l6.5,0l6.5,0l0.4-1.1c0.2-0.6,0.5-1.2,0.6-1.4
	c0.1-0.2-0.7-0.3-3.5-0.3H7l2.2-2.2l2.2-2.2l-1.3-2.1L8.9,3.1L14.6,3c3.2,0,5.8,0,5.9,0.1c0.1,0.1-2.1,5.5-4.9,12
	c-2.8,6.5-5.1,12-5.2,12.2c-0.1,0.3,0.3,0.3,1.7,0.2l1.8-0.1l5.7-13.3c3.1-7.3,5.7-13.5,5.8-13.7C25.5,0,24.9,0,14.3,0H3.1L4.4,2.2z
	 M103.8,11.7c-1.8,0.8-2.9,2.6-2.9,4.7c0,0.8,0,0.8-1,0.8h-1v1.2v1.2h1h1v6.6v6.6h1.5h1.5v-6.6v-6.6l1.5-0.1l1.5-0.1l0.5-1.2
	l0.5-1.2h-2h-2v-0.7c0-2.3,1.4-3.1,4.4-2.6c1,0.2,1,0.2,1.4-0.9c0.2-0.6,0.4-1.1,0.3-1.1C109.1,11.1,105.2,11,103.8,11.7z M25.6,13
	v1.4h3.4h3.4v9.2v9.2l1.6-0.1l1.6-0.1l0.1-9.1l0.1-9.1h3.4h3.4V13v-1.4h-8.4h-8.4V13z M136.4,12.4c0.1,0.4,0.9,4.5,1.8,9.3
	c0.9,4.7,1.7,9.2,1.9,9.9l0.3,1.3h1.5h1.4l2.3-5.7c1.3-3.1,2.4-5.7,2.5-5.9c0.2-0.2,0.7,1,3.3,8.6l1,3h1.4c1.4,0,1.5,0,1.6-0.7
	c0.1-0.4,1.3-5.1,2.6-10.6l2.4-9.9h-1.5h-1.5l-1.8,8c-1,4.4-1.9,8.1-1.9,8.1c-0.2,0.2-0.2,0.1-2.1-5.4l-1.9-5.3h-1.4h-1.4l-2.1,5.4
	c-1.2,3-2.2,5.4-2.3,5.4c-0.1,0-1.3-6.3-2.8-14.6l-0.3-1.6h-1.6h-1.6L136.4,12.4z M162.3,13.2v1.5h1.6h1.6v-1.5v-1.5h-1.6h-1.6V13.2
	z M55.1,17l-1.2,0.3l0.1,1c0,0.5,0.2,1.1,0.3,1.2c0.1,0.1,0.8,0.1,1.5-0.1c2.7-0.5,4.6-0.2,5.9,1.1c0.7,0.7,1.4,2.5,1.1,2.8
	c0,0-0.7-0.1-1.5-0.3c-3.2-0.9-7.1,0.2-8.4,2.2c-0.6,0.9-0.7,1.3-0.7,2.9c0,1.7,0.1,2,0.7,2.8c1.4,1.8,4.1,2.6,6.7,1.8
	c0.8-0.2,1.7-0.7,2.1-1c0.4-0.3,0.8-0.6,0.9-0.6c0.1,0,0.2,0.4,0.2,0.9v0.9h1.4h1.4v-5.6c0-3.5-0.1-6-0.3-6.6
	c-0.4-1.3-1.5-2.6-2.9-3.2C60.9,16.7,57.1,16.5,55.1,17z M74.6,17c-0.5,0.2-1.3,0.7-1.8,1.2L72,19v-1v-1h-1.4h-1.4v8v8h1.3h1.3
	l0.1-5.2c0.1-4,0.2-5.4,0.5-6c1.4-3.2,6.3-3.2,7.2,0c0.1,0.5,0.2,3.2,0.2,6v5.2h1.5h1.5v-5.5c0-6.4-0.2-7.5-1.7-8.9
	C79.6,16.8,76.9,16.2,74.6,17z M89.1,17c-3.1,1.2-4.4,3.8-3.2,6.5c0.4,1,0.7,1.3,1.8,1.8c0.7,0.3,2.3,0.8,3.4,1
	c2.4,0.5,3,0.7,3.3,1.5c0.9,2.4-3,3.6-6.5,1.9l-1.5-0.8L85.8,30c-0.3,0.6-0.6,1.2-0.6,1.2c0,0.3,2.9,1.4,4.5,1.6
	c3.1,0.5,6-0.5,7.3-2.6c0.7-1.2,0.6-3.8-0.3-4.8c-0.8-0.8-2.3-1.5-3.9-1.7c-3-0.4-4.4-1.1-4.4-2.3c0-2.1,2.8-2.9,5.8-1.7l1.4,0.6
	l0.6-0.9c0.3-0.5,0.6-1,0.6-1.1c0-0.1-0.6-0.5-1.4-0.8C93.8,16.7,90.6,16.4,89.1,17z M112.9,17c-1.3,0.4-3,1.8-3.9,3.1
	c-0.3,0.5-0.8,1.7-1,2.5c-1,3.9,0.8,8.2,4.2,9.6c2.6,1.1,6.8,0.6,8.9-1.2l0.9-0.7l-0.9-0.9c-0.8-0.8-0.9-0.9-1.4-0.5
	c-2,1.5-4.7,1.8-6.5,0.7c-2.7-1.6-3.2-6.5-1-9c2.4-2.7,6.4-1.7,7.2,1.8l0.2,0.8h-2.7c-2.9,0-2.8,0-3.6,1.6l-0.4,0.9h4.9h4.9
	l-0.1-1.8c-0.2-2.6-0.8-4.1-2.2-5.4C118.5,16.8,115.6,16.2,112.9,17z M171.9,17.1c-2.5,0.8-4,3.2-3.4,5.6c0.5,2,1.8,2.9,5.5,3.6
	c3.1,0.6,3.9,1.3,3.2,2.9c-0.7,1.6-3.9,1.9-6.6,0.5l-1.3-0.7l-0.6,1.1l-0.6,1.1l0.6,0.5c1.6,1.3,6.4,1.8,8.5,0.8
	c2-0.9,3.2-2.6,3.2-4.5c0-0.3-0.2-1.1-0.5-1.7c-0.6-1.3-2.2-2.2-5-2.6c-3.1-0.5-4.2-1.4-3.5-2.9c0.7-1.6,3.6-2,6-0.8
	c0.6,0.3,1.1,0.5,1.1,0.5s0.4-0.5,0.7-1.1l0.7-1l-0.7-0.4C177.5,16.8,174.1,16.4,171.9,17.1z M187.2,17c-1.7,0.5-3.5,2.2-4.3,4.1
	c-0.9,1.9-1,4.8-0.3,6.8c0.6,1.7,2.3,3.6,4,4.3c2.6,1.1,6.8,0.6,8.9-1.2l0.9-0.7l-0.9-0.9c-0.8-0.8-0.9-0.9-1.4-0.5
	c-2,1.5-4.7,1.8-6.5,0.7c-2.7-1.6-3.2-6.5-1-9c2.4-2.7,6.4-1.7,7.2,1.8l0.2,0.8h-2.7c-2.9,0-2.8,0-3.6,1.6l-0.4,0.9h4.9h4.9
	l-0.1-1.8c-0.2-2.6-0.8-4.1-2.2-5.4C192.8,16.8,190,16.2,187.2,17z M42.3,24.9v8h1.5h1.5v-5.1c0-4.8,0-5.2,0.5-6.2
	c0.7-1.5,2.2-2.2,4.2-2l1.4,0.1l0.3-1.1c0.2-0.6,0.2-1.2,0.2-1.3c-0.2-0.2-3-0.4-4-0.2c-0.5,0.1-1.3,0.5-1.7,0.9
	c-0.5,0.4-0.9,0.7-1,0.7S45,18.2,45,17.8v-0.9h-1.4h-1.4V24.9z M125.6,24.9v8h1.3h1.3l0.1-5.2c0.1-4.6,0.1-5.3,0.6-6.2
	c0.8-1.5,2.3-2.2,4.3-2l1.5,0.1l0.3-1.1c0.2-0.6,0.2-1.2,0.1-1.3c-0.1-0.1-1.2-0.2-2.4-0.2c-2.1,0-2.3,0-3.3,0.8l-1.1,0.8v-0.9v-0.9
	H127h-1.4V24.9z M162.5,24.9v8h1.5h1.5v-8v-8H164h-1.5V24.9z M62.2,25.6c0.5,0.3,0.6,0.4,0.4,1.3c-0.3,1.8-1.7,3.2-3.6,3.5
	c-2.4,0.4-4-0.6-4-2.4c0-2.2,1.7-3.2,5.1-2.9C60.9,25.2,61.9,25.4,62.2,25.6z"/>
</svg>
