<?xml version="1.0" encoding="utf-8"?>
<!-- Generator: Adobe Illustrator 26.3.1, SVG Export Plug-In . SVG Version: 6.00 Build 0)  -->
<svg version="1.1" xmlns="http://www.w3.org/2000/svg" xmlns:xlink="http://www.w3.org/1999/xlink" x="0px" y="0px"
	 viewBox="0 0 213 233" style="enable-background:new 0 0 213 233;" xml:space="preserve">
<style type="text/css">
	.st0{display:none;clip-path:url(#SVGID_00000017500454276674956040000015723983421567942577_);}
	.st1{display:inline;fill:#F8EFE5;stroke:#3C8AAC;stroke-width:18.8772;}
	.st2{display:inline;fill:none;stroke:#1B1B1B;stroke-width:1.4;}
	.st3{display:inline;fill:none;stroke:#1B1B1B;stroke-width:1.4;stroke-linecap:round;}
	.st4{display:inline;fill:none;stroke:#1B1B1B;stroke-width:1.4;stroke-linecap:round;stroke-miterlimit:4;}
	.st5{display:inline;fill:none;stroke:#9B5C8F;stroke-width:6;stroke-linecap:round;}
	.st6{clip-path:url(#SVGID_00000017500454276674956040000015723983421567942577_);}
	.st7{fill:#C6867F;}
	.st8{fill:#FFDA00;}
	.st9{fill:#FF6757;}
	.st10{fill:#3C3C3B;}
	.st11{fill:#F8EFE5;}
	.st12{clip-path:url(#SVGID_00000017500454276674956040000015723983421567942577_);fill:#F8EFE5;}
	.st13{clip-path:url(#SVGID_00000017500454276674956040000015723983421567942577_);fill:none;}
</style>
<g id="Capa_1">
	<g>
		<defs>
			<rect id="SVGID_1_" y="0" width="213" height="233"/>
		</defs>
		<clipPath id="SVGID_00000128474330662383930370000013431613828055082913_">
			<use xlink:href="#SVGID_1_"  style="overflow:visible;"/>
		</clipPath>
		<g style="display:none;clip-path:url(#SVGID_00000128474330662383930370000013431613828055082913_);">
			<path class="st1" d="M141.8,256.1c50.9,0,92.2-41.3,92.2-92.3c0-51-41.3-92.3-92.2-92.3c-50.9,0-92.2,41.3-92.2,92.3
				C49.6,214.8,90.9,256.1,141.8,256.1z"/>
			<path class="st2" d="M244,162.7c0-17.6-4.7-34.8-13.7-50c-9-15.2-21.9-27.8-37.4-36.6c-15.5-8.7-33.1-13.3-51-13.3
				C124,63,106.8,67.5,91.4,76.4"/>
			<path class="st2" d="M147.6,248.9c14.7-1.2,28.8-6.4,40.9-14.9c12.1-8.5,21.7-20.2,28-33.8c6.2-13.6,8.8-28.6,7.5-43.5
				c-1.3-14.9-6.3-28.9-14.8-41.2"/>
			<path class="st2" d="M200,104.2c-10.2-10.2-22.9-17.4-37-20.9c-14.1-3.5-29-3.2-43.3,1c-14.2,4.1-27.3,11.9-37.8,22.5
				c-29.9,34.4-29.4,85.8-4.5,107.3"/>
			<path class="st2" d="M70,92.8c-12.5,12.5-21.4,28.1-26,45.2c-4.5,17.1-4.4,35.2,0.3,52.3c4.7,17.1,13.8,32.8,26.4,45.3
				s28.3,21.6,45.5,26.1"/>
			<line class="st3" x1="141.3" y1="96.4" x2="141.3" y2="120.4"/>
			<line class="st4" x1="173.8" y1="110.6" x2="168.2" y2="119.5"/>
			<line class="st3" x1="197.3" y1="134.1" x2="188.2" y2="139.3"/>
			<line class="st4" x1="196.8" y1="198.8" x2="187.7" y2="193.7"/>
			<line class="st4" x1="173.8" y1="222.6" x2="168.3" y2="213.7"/>
			<line class="st4" x1="108.8" y1="221.8" x2="114.3" y2="212.8"/>
			<line class="st4" x1="85.8" y1="197.9" x2="94.9" y2="192.7"/>
			<line class="st4" x1="85.6" y1="133.6" x2="94.7" y2="138.9"/>
			<line class="st4" x1="108.5" y1="109.8" x2="114.5" y2="118.5"/>
			<line class="st3" x1="72.6" y1="166.2" x2="95.4" y2="166.2"/>
			<line class="st3" x1="211" y1="166.4" x2="188.3" y2="166.4"/>
			<line class="st3" x1="141.1" y1="234.9" x2="141.1" y2="212.1"/>
			<line class="st5" x1="142" y1="144" x2="142" y2="173"/>
		</g>
		<g style="clip-path:url(#SVGID_00000128474330662383930370000013431613828055082913_);">
			<polygon class="st7" points="121.3,157.4 122.5,175.2 130.9,174.5 132.6,169.2 139.5,167.9 139.3,160.2 139.6,155.7 			"/>
			<path class="st8" d="M32.5,94.6c0,0-31.7,65.2,6.4,88c0,0,20.9-61.4,3.5-85.9C42.5,96.8,41.9,86.9,32.5,94.6z"/>
			<path class="st8" d="M158.8,127.8c0,0,9.6,1.3,8.4,7.6s-0.2,23.9-5.8,23.7c-5.7-0.2-8.4,0-8.4,0s-4.5,2.6-1.3-28.3
				C151.7,127.1,158.8,127.8,158.8,127.8z"/>
			<path class="st9" d="M44.6,178c31.5-16,67.6-29.3,103.4-21.8c2.3,0.5,3.8-1.2,3.9-3c0,0,0,0,0,0c4-7.6,6.9-24.1-3.9-27.9
				c-5.1-1.8-11.4-1.3-16.7-1.9c-5.7-0.6-11.3-1.5-16.9-2.5c-23.3-4.3-45.8-12.1-66.9-23c-4.1-2.1-8.9,2.2-6.5,6.5
				c12.4,21.5,5.6,46.9-3.4,68.3C36,176.8,41.4,179.6,44.6,178z M103.1,128.2c0.5,0.1,1,0.2,1.5,0.3c-0.3,0.2-0.6,0.4-0.9,0.7
				C103.5,128.8,103.3,128.5,103.1,128.2z M93.3,149.1c-0.5,0.1-1.1,0.3-1.6,0.4c0.5-1,1-2,1.5-2.9C92.9,147.5,93,148.4,93.3,149.1z
				 M75.9,154.2c-0.3,0.1-0.6,0.2-1,0.3c0.1-0.2,0.2-0.3,0.2-0.5C75.4,154.1,75.6,154.1,75.9,154.2z M69.6,156.5
				c-0.8,0.3-1.6,0.6-2.4,0.9c0.2-0.6,0.5-1.1,0.7-1.7C68.4,156.1,69,156.3,69.6,156.5z"/>
			<path class="st10" d="M478.7,206.9c-3.1-0.1-6.2-0.2-9.3-0.2c-22.6-0.3-45.3,1.1-67.8,1.6c-43.9,1-87.8,1.6-131.8,1.2
				c-22.6-0.2-45.2-0.6-67.7-1.2c-9.4-0.2-20.1-2.1-29.3,0.6c-5.1,1.5-9.8,3.7-15.1,4.6c-5.4,0.9-10.9,0.8-16.3,0.1
				c0.5-0.5,0.9-1,1.2-1.6c1.3-2.4,1.1-5.2-0.6-7.2c0.2-0.2,0.4-0.3,0.5-0.5c2.4-2.8,2.4-7-0.5-9.3c0.6-0.5,1.1-1.1,1.4-1.8
				c1.2-2.4,0.7-5-1.2-6.5c1.6-1.6,1.9-4.1,0.8-5.9c0.8-0.1,1.5-0.3,2.2-0.5c1.5-0.4,1.2-2.7-0.4-2.7c-3.4,0-7.1,1.1-10.2-0.9
				c-1.7-1.1-3.1-3.4-2.1-5.4c0.6-1.3,2-2.1,3.3-2.2c0.1,0.1,0.3,0.2,0.6,0.2c10.6,0.4,21.1-1,28.4,8.3c3.2,4,5.9,8.8,11.2,9.1
				c0.2,0.2,0.5,0.3,0.9,0.3c50.2,3.1,100.8,2.2,151.1,1.5c25.2-0.4,50.3-0.9,75.5-1.3c12.1-0.2,24.2-0.5,36.4-0.7
				c9.8-0.2,19.7,0,29.5-0.4c3.2-0.2,6.3-0.4,9.4-0.7c1.3-0.1,1.3-2,0-2.1c-3.1-0.2-6.3-0.3-9.4-0.4c-9.8-0.1-19.8,0.5-29.5,0.6
				c-12.1,0.2-24.2,0.4-36.4,0.6c-25.2,0.4-50.3,0.9-75.5,1.3c-50.4,0.8-100.7,0.2-151.1-1.6c-0.5,0-0.8,0.1-1.1,0.4
				c-5-1.5-6.7-6.8-10.1-10.3c-1.9-2-4.2-3.5-6.7-4.6c-5.7-2.5-12.2-3-18.5-2.4c0.4-2.9,0.3-5.9,0.3-8.9c3,0.1,6,0.1,9-0.1
				c0.7,0,1-0.8,0.7-1.2c0.3-0.3,0.6-0.6,0.9-0.9c3.3,0.4,6.7,0.3,10.1,0.4c0.7,0,1.2-0.5,1.4-1.1c2.7-6.8,3-14.1,0.8-21.1
				c-0.1-0.4-0.4-0.7-0.7-0.8c0.1-0.3,0-0.8-0.4-0.8c-2.3-0.5-5-0.6-7.6-0.4c-1.2,0.1-2.3,0.2-3.4,0.4c0,0,0,0,0,0
				c-0.4-0.3-0.9-0.5-1.4-0.4c-0.1-0.3-0.3-0.6-0.7-0.6c-18.3-3.8-36.7-5.7-54.7-11C76.4,115,59.1,107.6,42,99.2
				c-0.2-0.1-0.5-0.2-0.7-0.4c-0.8-0.4-1.6-0.2-2.2,0.4c-0.1,0-0.2,0-0.3,0c-0.5-0.9-1.8-1.4-2.6-0.4C16.4,123,15.5,160.5,39,182.7
				c0.8,0.8,1.8,0,1.8-0.8c0.2,0,0.3-0.1,0.5-0.2c16.3-9.5,33.9-16.5,52.4-20.4c8.7-1.8,17.5-3,26.3-3.4c0.2,5.6,0.9,12,2.5,17.4
				c-1.1,0.6-2,1.4-2.6,2.6c-1.2,2.5-0.3,4.8,1.3,6.5c-2.2,2.5-1.9,6.3,0.2,8.9c0.4,0.6,0.9,1,1.4,1.4c-1.5,1.8-1.8,4.7-1,7
				c0.5,1.4,1.3,2.5,2.3,3.5c-1.5,2.1-1.2,5.3,0.1,7.5c1.8,3.2,5.5,4.5,9,4.4c1.5-0.1,3.1-0.4,4.6-1c0.2,0.4,0.5,0.7,1.1,0.8
				c10.6,1.7,20.7,0.7,30.8-2.8c11.8-4.1,25.2-2,37.6-1.8c45.6,1.1,91.2,1.3,136.8,0.6c22.2-0.3,44.5-0.9,66.7-1.4
				c19.5-0.5,39.2-0.2,58.7-1.4c3.1-0.2,6.2-0.4,9.2-0.7C480.2,209.2,480.3,207,478.7,206.9z M136.1,167.6c-0.1,0-0.2,0.1-0.3,0.1
				c-3.4-1.1-6.8,2.8-6,6.4c0,0,0,0,0,0.1c-1.7-0.2-3.8-0.2-5.6,0.3c0.2-5.5-0.4-11.5-1.5-16.8c0.1,0,0.2,0,0.4,0
				c5-0.2,10,0.1,15,0.3c0,3.1,0,6.2,0.4,9.2C137.7,167.3,136.9,167.4,136.1,167.6z M155.7,134.8c1.8-0.1,3.7-0.3,5.4-0.7
				c0,0.2-0.1,0.4,0,0.7c1.6,6.3,1.4,12.5-0.7,18.6c-2.5,0.1-5,0.1-7.5,0.4c1.4-2.4,2.1-5.4,2.2-8.5v0c0.1-3.7-0.6-7.5-2.1-10.5
				C153.9,134.8,154.8,134.8,155.7,134.8z M38.8,178.9c-17.2-23.1-19.4-53.3-0.9-76.6c2.1,8,3.7,16,4.6,24.2c0,0,0,0-0.1,0
				c-2.2,1.2-5,1.6-7.3,0.9c-0.6-0.2-1,0-1.3,0.4c-0.5-0.4-1.2-0.4-1.6,0.3c-4.1,8.2-4.1,18.1,1.3,25.7c0.2,0.2,0.4,0.4,0.6,0.4
				c0.1,0.6,0.5,1,1.2,1c2.5-0.3,4.7-0.3,7.1,0.4c-0.4,3.2-0.8,6.4-1.3,9.5v0c-0.6,4-1.3,8-2.1,12C39,177.6,38.9,178.2,38.8,178.9z
				 M42.7,153.3c-1.6-0.8-3.3-1.2-5.1-1.2c3.1-6.7,1.5-15.4-1.6-21.9c1.1,0.1,2.2,0.1,3.3-0.2c1.5-0.4,2.4-1.1,3.4-2.1
				c0.4,4.3,0.7,8.7,0.7,13C43.3,145,43,149.2,42.7,153.3z M35.3,152.3c-0.1,0-0.2,0-0.4,0.1c0,0-0.1,0-0.1,0.1
				c-3.5-7-4.4-14.4-1.5-21.6C37.1,138.1,36.4,144.6,35.3,152.3z M120.9,154.4c-2.8,0.1-5.6,0.3-8.3,0.6c0,0,0,0,0,0
				c0,0-0.1,0-0.1,0c-6.2,0.6-12.4,1.5-18.5,2.8c-18.5,3.8-36.2,10.6-52.4,20.1c3.4-10.2,5-21.1,5.3-32.2c0.3-13.9-1.6-28-5-41.1v0
				c-0.1-0.6-0.3-1.2-0.5-1.8c16.2,8.8,33.8,15.6,51.5,20.8c17.9,5.2,37.7,10.2,56.5,9.7c0,0.1,0,0.2,0,0.3
				c1.3,3.8,2.6,7.2,2.5,11.3c-0.1,4-1.8,7.3-2.7,11c-6.1-1.7-12.6-2.1-19.1-2h-0.1c0,0,0,0,0,0
				C126.8,154.1,123.8,154.2,120.9,154.4z M124.4,177.4c1.5-0.8,3.5-0.6,5.1-0.8c0.4,0,0.7-0.3,0.9-0.6c1.8,3.5,6.2,4.9,10.2,4.8
				c2.4,2.2-2.4,4.9-4,5c-0.8,0.1-1.6,0-2.5-0.1c-2.2-0.2-4.4-0.6-6.6-1.2C124.8,183.8,119.1,180.1,124.4,177.4z M123.3,186
				c0.8,0.5,1.7,0.9,2.5,1.2c3.9,1.3,10.4,2.8,14.6,0.8c1.8,1.4,0.7,4.2-0.8,5.3c-1,0.7-2.3,0.9-3.4,1c-1.7,0.2-3.5,0.2-5.2,0
				C126.9,193.9,120,191,123.3,186z M125.6,196.2c2.4,0.9,5.2,1,7.6,1.1c2.3,0,5.1-0.2,7.3-1.2c0,0,0,0.1,0.1,0.1
				c4.1,5.5-4.1,8.7-8.2,8.5C127.4,204.5,122.5,200.7,125.6,196.2z M126.8,206.8c1.3,0.6,2.6,0.9,4,1.1c3.1,0.4,6.8,0,9.6-1.8
				C144.9,214.4,122.6,217.4,126.8,206.8z"/>
			<path class="st11" d="M126.8,206.8c1.3,0.6,2.6,0.9,4,1.1c3.1,0.4,6.8,0,9.6-1.8C144.9,214.4,122.6,217.4,126.8,206.8z"/>
			<path class="st11" d="M132.3,204.7c-4.9-0.2-9.8-4-6.7-8.5c2.4,0.9,5.2,1,7.6,1.1c2.3,0,5.1-0.2,7.3-1.2c0,0,0,0.1,0.1,0.1
				C144.7,201.6,136.5,204.8,132.3,204.7z"/>
			<path class="st11" d="M139.6,193.2c-1,0.7-2.3,0.9-3.4,1c-1.7,0.2-3.5,0.2-5.2,0c-4-0.3-11-3.3-7.7-8.2c0.8,0.5,1.7,0.9,2.5,1.2
				c3.9,1.3,10.4,2.8,14.6,0.8C142.2,189.4,141.1,192.1,139.6,193.2z"/>
			<path class="st11" d="M136.7,185.9c-0.8,0.1-1.6,0-2.5-0.1c-2.2-0.2-4.4-0.6-6.6-1.2c-2.9-0.8-8.5-4.6-3.2-7.2
				c1.5-0.8,3.5-0.6,5.1-0.8c0.4,0,0.7-0.3,0.9-0.6c1.8,3.5,6.2,4.9,10.2,4.8C143.2,183.1,138.3,185.8,136.7,185.9z"/>
			<path class="st10" d="M426.3,203.3c-3.6,1.5-9,1.1-12.8,0.6c-0.5-0.1-0.3-0.8,0.1-0.8c2.1,0,4.2,0.2,6.3,0.2
				c2.1,0,4.3-0.5,6.3-0.3C426.5,203,426.5,203.2,426.3,203.3z"/>
			<path class="st10" d="M421.5,200.1c-5,0.3-9.9,0.2-14.9,1c-0.6,0.1-0.9-0.8-0.2-0.9c4.8-0.9,10.3-1.5,15.2-0.4
				C421.8,199.8,421.7,200,421.5,200.1z"/>
			<path class="st10" d="M169.4,205.5c-3.7,3.5-8.8,5.5-13.9,4.8c-0.5-0.1-0.4-0.9,0.1-0.9c5,0,9.3-1,13.2-4.4
				C169.2,204.7,169.7,205.2,169.4,205.5z"/>
			<path class="st10" d="M164.6,204.9c-3.5,1.9-7.3,3-11.3,3.2c-0.8,0-0.8-1.2,0-1.2c3.8-0.2,7.4-1.1,10.9-2.8
				C164.7,203.8,165.1,204.6,164.6,204.9z"/>
			<path class="st10" d="M55.9,164.3c4.4-2.9,10.1-4.5,15.3-5.2c0.4-0.1,0.6,0.5,0.2,0.6c-5.4,1.3-10,3.3-15.1,5.4
				C55.7,165.4,55.4,164.5,55.9,164.3z"/>
			<path class="st10" d="M51.9,162.7c4.6-2.3,9.4-4.2,14.4-5.3c0.4-0.1,0.6,0.5,0.2,0.7c-4.9,1.5-9.5,3.3-14,5.8
				C51.9,164.2,51.2,163.1,51.9,162.7z"/>
			<path class="st10" d="M107.5,130.8c4.5,0.5,9.1,1.3,13.6,2c0.4,0.1,0.3,0.7-0.1,0.6c-4.5-0.5-9.1-1-13.6-1.7
				C106.8,131.7,106.9,130.7,107.5,130.8z"/>
			<path class="st10" d="M101.4,131.4c4.5,2.2,9,3.3,14,3.2c0.5,0,0.5,0.7,0,0.8c-5,0.4-10-0.7-14.5-3
				C100.3,132,100.8,131.1,101.4,131.4z"/>
			<path class="st10" d="M26.7,178.2c1,5.7,4.7,10.2,10.7,11.1c0.4,0.1,0.3,0.8-0.1,0.7c-5.9-0.5-11.5-5.5-11.8-11.6
				C25.5,177.7,26.6,177.5,26.7,178.2z"/>
			<path class="st10" d="M19.7,180.5c1.8,4.5,4.7,8,9.1,10c0.6,0.3,0.1,1.1-0.5,0.8c-4.5-1.9-8.4-5.8-9.9-10.5
				C18.2,180,19.4,179.8,19.7,180.5z"/>
			<path class="st10" d="M57.8,96.5c-3.1-4.9-8.3-7.6-14.1-6.1c-0.4,0.1-0.6-0.6-0.2-0.7c5.6-1.8,12.7,0.7,15.3,6.2
				C59.1,96.5,58.2,97.1,57.8,96.5z"/>
			<path class="st10" d="M63.3,91.7c-3.4-3.4-7.4-5.6-12.3-5.8c-0.6,0-0.5-1,0.1-1c4.9,0.1,10,2.1,13.2,5.9
				C64.9,91.6,63.9,92.3,63.3,91.7z"/>
			<path class="st10" d="M182,217.7c7.4-0.6,14.7-1,22.1-1.6c0.5,0,0.5,0.7,0,0.7c-7.4,0.6-14.7,1.2-22.1,1.8
				C181.4,218.7,181.4,217.7,182,217.7z"/>
			<path class="st10" d="M185.9,222.3c3.9,0.1,7.9,0.1,11.8,0.2c0.5,0,0.5,0.7,0,0.7c-3.9,0-7.9,0.1-11.8,0.2
				C185.2,223.3,185.2,222.3,185.9,222.3z"/>
		</g>
		<path style="clip-path:url(#SVGID_00000128474330662383930370000013431613828055082913_);fill:#F8EFE5;" d="M469.3,186.2
			c-9.8,0.5-19.8,0.2-29.5,0.4c-12.1,0.2-24.2,0.5-36.4,0.7c-25.2,0.5-50.3,0.9-75.5,1.3c-50.3,0.8-100.9,1.6-151.1-1.5
			c-0.4,0-0.7-0.2-0.9-0.3c-5.3-0.3-8-5.1-11.2-9.1c-7.3-9.2-17.8-7.9-28.4-8.3c-0.2,0-0.4-0.1-0.6-0.2c-1.4,0-2.7,0.9-3.3,2.2
			c-1,2,0.4,4.3,2.1,5.4c3.1,2,6.8,0.9,10.2,0.9c1.6,0,1.9,2.3,0.4,2.7c-0.7,0.2-1.4,0.3-2.2,0.5c1.1,1.8,0.8,4.3-0.8,5.9
			c1.9,1.5,2.4,4.1,1.2,6.5c-0.4,0.7-0.9,1.3-1.4,1.8c2.9,2.3,3,6.5,0.5,9.3c-0.2,0.2-0.4,0.3-0.5,0.5c1.7,2,2,4.9,0.6,7.2
			c-0.3,0.6-0.8,1.1-1.2,1.6c5.4,0.8,10.9,0.8,16.3-0.1c5.3-0.9,10-3.1,15.1-4.6c9.2-2.7,19.9-0.9,29.3-0.6
			c22.6,0.6,45.2,1,67.7,1.2c43.9,0.4,87.8-0.2,131.8-1.2c22.5-0.5,45.2-2,67.8-1.6C469.4,200,469.3,192.2,469.3,186.2z
			 M153.3,206.9c3.8-0.2,7.4-1.1,10.9-2.8c0.5-0.2,1,0.5,0.5,0.8c-3.5,1.9-7.3,3-11.3,3.2C152.5,208.2,152.5,206.9,153.3,206.9z
			 M169.4,205.5c-3.7,3.5-8.8,5.5-13.9,4.8c-0.5-0.1-0.4-0.9,0.1-0.9c5,0,9.3-1,13.2-4.4C169.2,204.7,169.7,205.2,169.4,205.5z
			 M406.4,200.1c4.8-0.9,10.3-1.5,15.2-0.4c0.2,0,0.1,0.3,0,0.3c-5,0.3-9.9,0.2-14.9,1C406.1,201.1,405.8,200.2,406.4,200.1z
			 M426.3,203.3c-3.6,1.5-9,1.1-12.8,0.6c-0.5-0.1-0.3-0.8,0.1-0.8c2.1,0,4.2,0.2,6.3,0.2c2.1,0,4.3-0.5,6.3-0.3
			C426.5,203,426.5,203.2,426.3,203.3z"/>
		<path style="clip-path:url(#SVGID_00000128474330662383930370000013431613828055082913_);fill:none;" d="M469.6,222.2
			c0,0-0.1-5.3-0.2-12.2c0-1.1,0-2.2,0-3.3"/>
		<path style="clip-path:url(#SVGID_00000128474330662383930370000013431613828055082913_);fill:none;" d="M469.3,186.2
			c0-1.1,0-2.2,0-3.1c0-3.6,0.1-6.2,0.3-7"/>
	</g>
</g>
<g id="Capa_2">
</g>
</svg>
