<?xml version="1.0" encoding="utf-8"?>
<!-- Generator: Adobe Illustrator 26.3.1, SVG Export Plug-In . SVG Version: 6.00 Build 0)  -->
<svg version="1.1" id="Capa_1" xmlns="http://www.w3.org/2000/svg" xmlns:xlink="http://www.w3.org/1999/xlink" x="0px" y="0px"
	 viewBox="0 0 216 222" style="enable-background:new 0 0 216 222;" xml:space="preserve">
<style type="text/css">
	.st0{clip-path:url(#SVGID_00000078036343471198589200000000385830276708326580_);}
	.st1{fill:#F8EFE5;}
	.st2{fill:#3C3C3B;}
	.st3{fill:#FF6757;}
	.st4{fill:#FED233;}
</style>
<g>
	<defs>
		<rect id="SVGID_1_" y="0" width="216" height="222"/>
	</defs>
	<clipPath id="SVGID_00000008123851766601720210000008616172212696119479_">
		<use xlink:href="#SVGID_1_"  style="overflow:visible;"/>
	</clipPath>
	<g style="clip-path:url(#SVGID_00000008123851766601720210000008616172212696119479_);">
		<g>
			<path class="st1" d="M305,166.2c-13.7-2.2-31-4.9-45.1-0.7c-17.4-2.1-34.8-3.8-52.2-4.6c-12-0.5-23.9-0.2-35.9,0.1
				c-10.4,0.3-20.7-2.4-31-2c-1-3.2-2.4-6.2-4-9.2c-1.9-3.2-4.5-6.2-5.8-9.7c-1.6-4.1-1.5-8.8-1.5-13.2c0-3.8-3.3-5.5-6.7-5.1
				c-3.7,0.5-6.6,3.2-8.1,6.6c-2.1,4.8-0.3,9.4-0.5,14.4c0,1.2-0.2,2.4-0.4,3.6c-0.8-0.5-1.7-0.8-2.7-0.8c-1.1,0-2,0.2-2.7,0.6
				c-0.3,0-0.6,0-0.9,0c0,0,0,0,0,0c-0.5,0-0.9,0.1-1.4,0.1c-2.2,0.4-3.4,2-3.7,3.8c-5.4,0-10.7,0.9-15.9,2.9
				c-2.8,1.1-5.4,4.7-3.1,7.7c1,1.3-0.7,6.6,0,8.7c0.5,1.5,1.4,2.9,2.6,3.9c-0.7,1.2-1.3,2.5-1.8,3.8c-1.4,3.2,2,6.7,5.1,6.7
				c0.7,0,1.3,0,2,0c-3.4,1.5-5.8,5.3-4.2,9c3.8,8.8,18.4,5.8,24.2,1.5c0.2-0.1,0.4-0.3,0.6-0.4c1.4,1.3,3.5,2,5.3,1.6
				c7-1.2,14.4-3.5,20.4-7.4c2.9-1.8,4.4-4.4,5.2-7.4c2.7,1.3,5.7,2.1,8.7,2.4c5.9,0.7,11.8,0.5,17.7,0.8c6.8,0.5,13.6,1.2,20.4,1.8
				c13,1.2,26,1.9,39,0.1c4.2-0.6,8.3-1.5,12.4-2.4c0.8,1.8,2.8,3.2,4.9,3.5c8.8,1.2,17.6-0.1,26.4-0.9c5.4-0.5,10.9-1,16.3-1.5
				c3.5-0.2,7-0.5,10.6-1c0.1,0,0.2,0,0.3,0l0,0c0.5-0.1,0.9-0.1,1.4-0.2c3.3-0.5,4.3-3.9,3.5-6.7c0.7-0.4,1.4-0.7,2-1.2
				C309.7,173.6,309.7,167,305,166.2z M287.1,174.1c0.5,0.1,1.1,0.1,1.6,0.2c-0.6,0.1-1.1,0.1-1.7,0.2
				C287,174.3,287,174.2,287.1,174.1z M107.3,161.1c0.1,0,0.1,0,0.2,0c0,0.3,0.1,0.7,0.1,1c-2.3-0.6-4.9-0.4-7.5,0.5
				c-0.8,0.3-1.6,0.7-2.4,1.1c-1.3-0.4-2.8-0.3-4.1,0.2c0-0.7,0-1.4,0.1-2.1C98.1,160.7,102.6,160.4,107.3,161.1z"/>
			<g>
				<path class="st2" d="M470.7,156.6c-54.6,1.7-109,4.4-163.6,4.4c-27,0-54-0.3-81-1c-27.5-0.7-55.1-2.6-82.7-2.4
					c-0.1,0-0.3,0-0.4,0.1c0.2-7.6-5-14.9-11.8-17.8c1.5-4.9,2.7-10.5,0.3-15.3c-1.9-3.8-5.7-6.8-10-6.4c-10.9,1.1-11.4,17-8.5,24.8
					c-4.4-0.7-9.8,0.9-12.9,4c-4.9-0.1-10.3,1.5-14.2,4.3c-1.4,1-2.8,2.6-3,4.2c-1.6,2.2-0.7,4.5,1,6.1c-1.9,1-3.1,3.2-3.2,5.5
					c-0.1,2.5,1.1,4.4,2.8,5.9c-1.2,0.7-2.1,2-2.6,3.6c-1,3.4,0.5,6.4,3.1,8.5c-1.8,1.8-2.1,5.6-1.3,7.9c1.9,6.3,9,7.7,14.7,8.3
					c5.2,0.5,12.1,0.5,15.7-3.9c10.7,3.7,23.9-3.6,29-12.9c0.2-0.3,0.3-0.7,0.3-1c25.5,3.5,52.2,2.4,77.9,3.2
					c27.1,0.8,54.1,1.6,81.2,2.5c26.5,0.8,53,1.5,79.5,2.1c27.5,0.7,55.4,2.6,82.9,1.6c2.4-0.1,2.3-3.4,0-3.6
					c-26.3-2.4-53.1-2.1-79.5-2.9c-27.1-0.9-54.1-1.7-81.2-2.4c-26.5-0.6-53-1.3-79.5-2c-26.7-0.7-54.5-3.4-81.2-1.3
					c-0.5,0-0.9,0.4-1.1,0.8c-1-0.7-2.5-0.7-3.4,0.6c-5.9,9.1-13.7,11.8-23.6,12.9c1.4-3.7-0.2-7.8-3.7-9.2c0.2-0.2,0.5-0.4,0.7-0.7
					c0.6,0.1,1.2-0.1,1.4-0.7c0.3-0.8,0.5-1.6,0.4-2.4c0,0,0-0.1,0.1-0.1c0.2-0.5,0-1-0.3-1.3c-0.3-0.9-0.8-1.7-1.4-2.5
					c-1-1-2.2-1.7-3.4-2.1c3.1-1.4,5.2-3.8,4.4-7.9c0-0.1-0.1-0.2-0.1-0.3c-0.1-2.4-1.7-4.6-3.8-5.8c2.3-1.5,3.4-4.2,3-7.1
					c-0.5-3.8-3.6-6.2-7.1-7.2c0.8-0.3,1.7-0.6,2.6-0.8c2.2-0.5,4.3-0.2,6.5-0.1c1.7,0.1,2.2-2.1,1.2-3.1c0-0.1,0.1-0.1,0.1-0.2
					c0.8-5.9-1.2-14.9,3.8-19.3c3.8-3.3,8.2-0.3,9.3,3.9c1.1,3.9-0.4,8.2-1.5,11.9c-0.6,1.9,1.4,3.1,2.9,2.5
					c6.1,3.4,9.3,9.2,9.4,16.3c0,2.1,2.3,2.5,3.4,1.3c0.3,0.3,0.6,0.5,1.1,0.6c53.9,6.4,109.4,5.7,163.6,5.7
					c54.4,0,109.3-0.5,163.6-4.9C473.8,161.4,473.9,156.5,470.7,156.6z M110.9,192c-0.8,1.3-1.7,2.6-2.5,3.9c-1.5,1.3-4,1.4-5.9,1.5
					c-2.7,0.1-5.9-0.1-8.6-0.7c-2.6-0.5-5.8-1.5-7.3-4c-1.3-2.2-0.8-4,0.1-5.9c5.5,2.6,14.5,3.7,20.6,1.2c0.2,0.2,0.4,0.5,0.8,0.6
					C109,189.7,109.9,190.9,110.9,192z M110.2,181.2c-4.8,4.6-10,4.5-16.5,3.5c-2.2-0.3-4.9-0.7-6.8-1.9c-3.2-2.1-3.7-5.7-1.3-8
					c1,0.6,2.1,1.1,3.1,1.4c3.5,1.2,11,2.1,16.7,0.8C107.4,177.9,109.7,179.2,110.2,181.2z M109.8,167.6c-0.1,0.1-0.2,0.3-0.2,0.5
					c-0.9,5.9-8.9,5.7-13.4,5.3c-2.4-0.2-4.9-0.5-7.1-1.4c-3.6-1.4-7.1-6.1-2.5-8.8c0.1,0,0.1,0,0.2,0.1c5.5,1.6,13.1,1.3,18.5-0.5
					c0.1,0,0.2-0.1,0.3-0.2C107.9,163.5,109.3,165.3,109.8,167.6z M106.6,152.8c2.2,2.2,2,5.6-0.9,6.9c-0.3,0.1-0.4,0.3-0.6,0.5
					c-0.1,0-0.1,0-0.2,0c-3.5,0.2-16.5,2.5-19.7-1.6c0.2-0.3,0.3-0.7,0.2-1c-2.2-4.1,11.7-6.8,13.7-6.9
					C101.6,150.6,104.7,150.9,106.6,152.8z"/>
			</g>
			<path class="st2" d="M130.7,181.5c-2,3.8-5.3,6.2-9.7,6.6c-0.5,0-0.5,0.8,0,0.8c4.4,0.1,8.9-2.7,10.7-6.8
				C132,181.4,131.1,180.8,130.7,181.5z"/>
			<path class="st2" d="M134.1,175.2c-2.8,4.2-6.9,6.9-11.9,7.5c-0.6,0.1-0.6,0.9,0,0.9c5.3-0.3,10.3-3.2,13-7.7
				C135.6,175.1,134.5,174.5,134.1,175.2z"/>
			<path class="st2" d="M240,169.9c-6.5-1.4-13.5-1.5-20.1-1.1c-0.6,0-0.6,1,0,0.9c6.8-0.2,13.3,0.5,20,1.3
				C240.5,171.1,240.6,170,240,169.9z"/>
			<path class="st2" d="M246.2,173.8c-6.7,0.1-13.3-0.6-19.8-2c-0.7-0.1-0.9,0.9-0.3,1c6.6,1.6,13.3,2.5,20.1,2.5
				C247.1,175.4,247.1,173.8,246.2,173.8z"/>
			<path class="st2" d="M317.7,151.8c-4.9-0.1-9.8,0-14.7,0.1c-0.7,0-0.7,1.2,0,1.2c4.9,0.1,9.8,0.2,14.7,0.1
				C318.5,153.1,318.5,151.8,317.7,151.8z"/>
			<path class="st2" d="M326.1,147.4c-6,0-11.9,0-17.9,0.2c-0.8,0-0.8,1.2,0,1.3c6,0.2,11.9,0.2,17.9,0.2
				C327.1,149.1,327.1,147.4,326.1,147.4z"/>
		</g>
		<g>
			<path class="st3" d="M94,97c-0.5-5.9-4.7-10.9-10.6-11.8c-2.4-0.4-5.8,0.9-6.7,3.5c-6.9,20.4-12.7,42.2-24.1,60.8
				c-4-7.3-5.1-16.1-6.3-24.1c-0.5-3.3-3.3-5.9-6.8-5.6c-4.1,0.4-7.5,1.6-11.1,3.8c-3.7,2.2-3.2,6.7-0.7,9.4
				c1.1,5.7,2.4,11.4,4.1,17c1.7,5.9,2.9,14.1,7.6,18.6c4.3,4,10.8,4.3,15.9,2c5.9-2.7,9.2-8.3,12.3-13.7
				c7.5-13.2,13.7-27.1,20.1-40.8C90.5,110.1,94.6,103.6,94,97z"/>
			<path class="st2" d="M97.1,94.4c-0.1-0.5-0.5-1-1.1-1.3c-5.8-2.6-11.1-5.6-16.3-9.2c-1-0.7-2.5-0.6-3.1,0.7
				C68,103,61.4,123.4,50.7,140.8c-1.5-4-3-7.9-4.6-11.9c-0.8-2-1.4-5-3.3-6.3c-4.1-2.8-12.9,1.2-17.2,2.3c-0.1,0-0.1,0.1-0.2,0.1
				c-0.4-0.2-0.9,0.2-0.8,0.7l0,0c-0.3,0.8,0,1.8,0.6,2.2c3.6,12.7,6.7,26.2,12,38.3c3.6,8.2,13.7,6,21.5,6.5
				c0.9,0.1,1.9-0.3,2.3-1.2c11.3-25.4,23.6-50.3,36.1-75.1C97.6,95.7,97.5,94.9,97.1,94.4z M62,159.1c-2.5,5.7-2.8,9.4-9.6,9.1
				c-2.2-0.1-5.2,0.3-7.2-0.4c-4.8-1.6-5-4.8-6.4-8.9c-3.7-10.3-7.7-20.5-11.8-30.7c5.2-1.2,11.8-4.2,15.2,0.6
				c3.1,4.4,4.5,12.1,6.4,17.1c0.5,1.3,2.5,1.8,3.3,0.6c11.8-17.4,19.4-38.6,27.6-58c4.2,2.8,8.5,5.3,13.1,7.5
				C81.5,116.5,71.5,137.7,62,159.1z"/>
			<path class="st2" d="M39.4,150.1c-2.4-5.8-5-11.6-7.7-17.2c-0.2-0.4-0.8-0.2-0.7,0.2c2.2,5.8,4.8,11.6,7.4,17.3
				C38.6,151.1,39.6,150.8,39.4,150.1z"/>
			<path class="st2" d="M39.3,138.5c-1.6-3.1-3.2-6.3-5.1-9.3c-0.2-0.3-0.7,0-0.6,0.3c1.3,3.2,3,6.4,4.7,9.4
				C38.6,139.5,39.6,139,39.3,138.5z"/>
			<path class="st2" d="M97.6,83.5c-0.8-0.2-1,1-0.2,1.2c4.9,1.2,6.8,7.6,3.8,11.5c-0.5,0.7,0.5,1.6,1.1,0.9
				C106.3,92.5,103.3,84.8,97.6,83.5z"/>
			<path class="st2" d="M108.7,81.5c-0.6-0.3-1,0.6-0.4,0.9c6,3.3,7.6,11.5,3.1,16.7c-0.6,0.7,0.5,1.7,1.1,1
				C117.6,94.5,115.7,84.5,108.7,81.5z"/>
		</g>
		<g>
			<path class="st4" d="M197.1,123.9c-1.8-3.6-3.7-7-5.7-10.4c-4.2-7-9-13.5-14.2-19.8c-2.2-2.7-6.3-1.5-8,1
				c-7.8,11.8-13.8,24.6-19.8,37.4c-0.5,1.1-0.7,2.1-0.6,3.1c-0.5,2.4,0.5,5,3.4,5.8c4,1,8,1.8,12,2.2c0,0.5,0,1,0,1.5
				c0.1,1.4,0.4,2.8,1.1,4.1c0.7,1.4,2.2,1.6,3.4,1.1c0.8,0.2,1.6,0.1,2.5-0.4c2.8-1.7,6.9-1.3,9.4,0.9c3.6,3.2,8.7,0.1,7.8-4.5
				c-0.4-2-0.6-3.9-0.6-5.9c1.9-0.1,3.7-0.1,5.6-0.3c3.5-0.3,6.5-2,7.1-5.7C200.9,130.6,198.6,127,197.1,123.9z M163.6,130.7
				c-0.3,0-0.7,0-1,0c0.3-0.5,0.6-1,1-1.5C163.5,129.8,163.6,130.3,163.6,130.7z"/>
			<path class="st2" d="M150.3,139c4.1,0.4,8.2,0.8,12.4,0.7c0,0.1-0.1,0.1-0.1,0.2c-0.4,3.4-0.1,7.2,0.2,10.6
				c0,0.2,0.1,0.4,0.2,0.6c-0.1,0.1-0.2,0.2-0.4,0.3c0.6,0.1,1.2,0.2,1.9,0.5c0.6,0.3,1.2,0.6,1.8,0.9c5.1-3,12.4-3.6,17.3-0.6
				c0.9-0.8,2.2-1.3,3.5-1.4c-0.2-0.1-0.3-0.3-0.5-0.4c0.3-3.6,0.4-7.3,0.4-11c0.2,0.1,0.5,0.2,0.9,0.2c3.7-0.2,7.2-0.1,10.9,0.4
				c1.1,0.2,2.7-0.7,2.1-2.1c-6.3-15.9-14.7-30.4-25.3-43.9c-0.7-0.9-2.3-0.6-2.7,0.4c-7.5,14.3-15.5,28.3-24.1,41.9
				C147.9,137.5,149,138.9,150.3,139z M174.6,98.4c9,11.6,16.3,24.3,21.9,37.9c-2.9-0.3-5.7-0.3-8.6-0.2c-0.9,0-1.4,0.6-1.6,1.3
				c-0.8-0.3-1.8,0.1-1.8,1.1c0.1,3.6,0.1,7.2,0.4,10.8c-4.5-2.6-10.4-3-15.8-1.5c-1.4,0.4-2.8,1-4.1,1.8c0.3-3.2,0.5-6.7,0.1-9.8
				c0-0.4-0.2-0.7-0.4-0.9c0.1-0.4,0-0.9-0.6-1.1c-3.5-1-7.2-1.6-10.8-2.2C160.9,123.7,168,111.2,174.6,98.4z"/>
			<path class="st2" d="M211.8,141.6c-1,5.3-5.1,9-10.6,9.1c-0.5,0-0.5,0.7,0,0.7c5.6,0.4,11.1-4.1,11.6-9.7
				C213,141.1,211.9,141,211.8,141.6z"/>
			<path class="st2" d="M210.9,137.3c-1.2,4.6-3.7,8.2-8,10.3c-0.5,0.2-0.1,1,0.4,0.7c4.3-1.9,7.9-6,8.6-10.8
				C212,136.9,211.1,136.6,210.9,137.3z"/>
			<path class="st2" d="M168.7,114.7c-2.8,4.5-5.6,8.9-8.6,13.3c-0.2,0.3,0.3,0.8,0.6,0.4c3.3-4.1,6.4-8.6,8.8-13.3
				C169.8,114.7,169,114.2,168.7,114.7z"/>
			<path class="st2" d="M173.9,112.4c-1.8,4.8-4.6,8.9-8.4,12.4c-0.3,0.3,0.2,0.8,0.5,0.5c4.1-3.3,7.3-7.6,9-12.6
				C175.3,112,174.2,111.7,173.9,112.4z"/>
		</g>
	</g>
</g>
</svg>
