<?xml version="1.0" encoding="utf-8"?>
<!-- Generator: Adobe Illustrator 26.3.1, SVG Export Plug-In . SVG Version: 6.00 Build 0)  -->
<svg version="1.1" xmlns="http://www.w3.org/2000/svg" xmlns:xlink="http://www.w3.org/1999/xlink" x="0px" y="0px"
	 viewBox="0 0 224 206" style="enable-background:new 0 0 224 206;" xml:space="preserve">
<style type="text/css">
	.st0{clip-path:url(#SVGID_00000059990838651320900770000003737780481747240093_);}
	.st1{fill:#F8EFE5;}
	.st2{fill:#FF6757;}
	.st3{fill:#3C3C3B;}
	.st4{display:none;clip-path:url(#SVGID_00000102505333645965818670000010978280581406852011_);}
	.st5{display:inline;fill:#F8EFE5;stroke:#3C8AAC;stroke-width:18.8772;}
	.st6{display:inline;fill:none;stroke:#1B1B1B;stroke-width:1.4;}
	.st7{display:inline;fill:none;stroke:#1B1B1B;stroke-width:1.4;stroke-linecap:round;}
	.st8{display:inline;fill:none;stroke:#9B5C8F;stroke-width:6;stroke-linecap:round;}
	.st9{clip-path:url(#SVGID_00000158742723865744397720000006317714349503276207_);}
	.st10{fill:#C6867F;}
	.st11{fill:#FFDA00;}
	.st12{clip-path:url(#SVGID_00000034060744959902749860000015168168711533366190_);fill:#F8EFE5;}
	.st13{clip-path:url(#SVGID_00000106143920076467812950000010144544609552972694_);fill:none;}
	.st14{clip-path:url(#SVGID_00000129199603445541255830000004133699343839360921_);fill:none;}
	.st15{fill:#FED233;}
</style>
<g id="Capa_1">
	<g>
		<defs>
			<rect id="SVGID_1_" y="0" width="224" height="206"/>
		</defs>
		<clipPath id="SVGID_00000023978670737819042310000009282316728247488959_">
			<use xlink:href="#SVGID_1_"  style="overflow:visible;"/>
		</clipPath>
		<g style="clip-path:url(#SVGID_00000023978670737819042310000009282316728247488959_);">
			<path class="st1" d="M162.6,149c-0.4-0.2-0.7-0.3-1.1-0.3c-1-0.8-2.3-1.2-3.7-1.2c-3.1-6.8-6.7-13.4-10.9-19.7
				c-1.3-1.9-4-1.2-4.6,0.3c-1.1,0.6-1.7,1.8-1,3.2c1.7,3.6,1.3,7.7,2.7,11.4c0.6,1.7,1.6,3.1,2.6,4.6c0.6,0.8,1.4,1.7,1.6,2.7
				c0,0.1,0.1,0.5,0.1,0.9c-0.7-0.2-1.4-0.2-2.2,0c-0.9,0.3-1.5,0.9-1.8,1.7c-1.5,0.5-3.1,1-4.6,1.5c-1.2,0.4-1.8,1.5-1.9,2.6
				c-0.5,0.2-1,0.4-1.6,0.4c-1.3,0.2-2.3,0-3.4,0.8c-2.4,1.7-1.4,4.6-0.8,7c1.6,6.2,4.2,12.3,8.8,16.8c2.1,2,4.4,3.6,7,4.8
				c1.6,0.7,3.3,1.2,5,1.8c0,0.5,0.2,0.9,0.6,1.4c1.2,1.4,2.3,2.8,3.3,4.4c0,0.1,0,0.1,0,0.2c0.3,4.8,3.5,7.7,5.3,11.9
				c1,2.2,1.4,4.7,2.3,6.9c0.9,2.4,2.1,4.6,3.3,6.8c1.9,3.4,4.6,7,9,6.6c1.8-0.2,3.5-2,5.2-1.5c1.7,0.6,3,1.4,4.8,0.9
				c1.5-0.4,2.6-2.1,1.7-3.6c-3.9-6.5-7.2-13.2-10-20.3c-0.9-2.3-2-4.6-3.8-6.3c0-0.1-0.1-0.2-0.1-0.4c-1.9-4.2-5.1-8.1-6.2-12.6
				c-1-4.1,0.7-8,1.3-12c0.6-4.2-0.2-8.4-1.3-12.5C167.3,154.9,166.3,150.8,162.6,149z M165.6,189.5l0.4,0.7
				c-0.2-0.2-0.5-0.3-0.7-0.5C165.4,189.7,165.5,189.6,165.6,189.5z M171.8,217.3c-0.2-0.4-0.4-0.7-0.6-1.1c0.1,0.2,0.3,0.4,0.4,0.6
				C171.7,217,171.7,217.2,171.8,217.3z"/>
			<path class="st2" d="M147.2,53.2c-2.2-3.9-5.1-7.7-9.6-9c-3.9-1.2-7.7,0.2-10.4,3c-3.8-0.8-7.1,1.2-10,3.6
				c-4.4,3.6-8.9,6.9-14,9.5c-2.3,1.2-4.7,2.2-7.1,3.1c-2.3,0.9-5,1.3-6.8,3.2c-3.4,3.6-2.3,9.1-0.9,13.3c3.5,11,8.4,21.5,13.7,31.8
				c2.6,5.2,5.4,10.4,8,15.6c2.4,4.7,4.4,9.6,6.9,14.3c2.2,4.1,5.3,8,10.1,8.8c5.3,0.9,9.8-2.1,13.9-5c1.2-0.9,1.3-3.2,0.2-4.2
				c-2-1.7-4.1-1.9-6.5-0.7c-1.1,0.5-2.2,1.6-3.4,1.9c-2,0.4-2.8-2.3-3.6-3.7c-3.8-6.8-7.7-13.5-11.5-20.4
				c-3.9-6.9-7.2-14-10.3-21.3c-1.4-3.4-2.9-6.8-4.3-10.2c-0.7-1.7-1.4-3.4-2.1-5.1c-0.7-1.7-2.2-3.3-0.2-4.3
				c6.8-3.3,13.5-6.7,19.8-11c3-2,5.9-4.1,8.7-6.4c0.4-0.3,0.9-0.8,1.4-1.2c0.5-0.2,1-0.5,1.6-0.7c0.1,0,0.2-0.1,0.3-0.1
				c0.7,0.3,1.5,0.3,2.3,0c1.6-0.7,3.1-1.4,4.6-2.3c0,0,0,0,0,0c1,1,1.8,2.5,2.5,3.6c1.1,1.6,2.1,3.1,3,4.8c2.1,3.6,4,7.3,5.8,11
				c3.4,7,6.4,14.2,9.8,21.2c3.5,7.1,8.4,14.1,9.2,22.2c0.2,2.1,0.2,3.4-1.3,4.9c-1.6,1.6-3.8,2.7-5.8,3.6c-2.8,1.2-6.3,1.9-7,5.4
				c-0.3,1.6,0.3,3.2,1.9,3.7c7.1,2.3,15.2-3.9,20.7-7.8c3.1-2.2,4.5-5.2,3.4-9c-1.4-4.5-3.7-8.9-5.7-13.2
				C166.5,88,157.1,70.4,147.2,53.2z M174.1,123c0.2-0.8,0.4-1.8,0.4-2.8c0-0.2,0-0.4,0-0.6C175,120.8,175.2,121.9,174.1,123z"/>
			<g>
				<path class="st3" d="M157.7,145.8c-2.5-6-5.4-12.3-9.2-17.2c-1.1-1.4-4.8-4.5-6.1-2.1c-2.8,1.8-2.3,5.5-1.3,8.4
					c1.7,4.9,4.1,10.4,7,15c-0.9-0.3-1.9-0.3-2.6-0.1c-1.3,0.4-2.5,1.6-2.8,3c-1.1-0.8-2.8-0.9-4,0c-1.1,0.8-1.9,2.4-1.8,3.9
					c-1.7-0.7-3.6-0.5-5.1,1c-2.8,2.8-0.6,7.1,0.6,10.1c3,7.3,9.2,22,19.3,20.5c5.8,14.1,12.9,27.7,19.4,41.4
					c6.7,14,13.4,28,20.2,42c13.4,27.7,27,55.3,40.5,83c0.5,1,2.1,0.2,1.6-0.8c-13.8-27.5-27.1-55.3-40.5-83
					c-6.6-13.7-13.2-27.5-19.8-41.3c-6.7-14-12.8-28.3-20.2-42c-0.1-0.2-0.3-0.3-0.4-0.4c-0.1-0.3-0.4-0.4-0.8-0.4
					c-7,1.2-11.3-6.6-14.2-11.7c-1.2-2.1-2.3-4.3-3.2-6.5c-0.5-1.2-1.1-2.5-1.5-3.7c-0.3-0.9-0.6-1.8-0.9-2.7
					c1.8-3.5,3.6-4.8,5.3-3.9c0.1,0.2,0.2,0.3,0.3,0.5c0.2,0.2,0.4,0.3,0.7,0.2c0.3,0.1,0.5-0.1,0.5-0.4c0-0.1,0.1-0.2,0.1-0.3
					c0-1.2-0.5-2.4,0.2-3.5c0.8-1.2,2.7-1.3,3.6-0.2c0,0,0,0.1,0,0.1c0.3,0.8,1.4,0.8,1.5-0.1c0.1-1.4,0.4-2.8,1.9-3.3
					c1.3-0.5,2.3,0.3,3.4,0.8c0.2,0.3,0.4,0.7,0.7,1c0.2,0.2,0.7,0,0.6-0.3c-1.2-3.7-3.3-7.2-4.8-10.8c-1.8-4.1-6.4-11.4-1.9-14.9
					c1.1,0.1,2.3,1.1,2.8,1.6c0.8,1,1.4,2.1,2.1,3.2c1.2,2.1,2.3,4.2,3.4,6.4c2.2,4.3,4.3,8.7,6.4,13c0.3,0.7,1.3,0.1,1.1-0.5
					c-0.5-1.2-1-2.4-1.5-3.7c6.9,1.2,8.5,7.9,9.8,14.2c1,5.3,1.5,10.6-0.9,15.6c-0.2,0.4,0,0.9,0.3,1.1
					c5.4,14.7,12.9,28.9,19.6,43.1c6.4,13.8,13,27.6,19.7,41.3c13.6,27.9,27.7,55.6,42.2,83c0.5,0.9,1.8,0.2,1.4-0.7
					c-14.5-27.4-28.6-55.1-42.2-83c-6.7-13.7-13.2-27.5-19.7-41.3c-6.6-14.2-12.3-29.1-19.6-42.9c3-6.2,1.8-13.2,0.3-19.6
					C167.7,152.6,164.3,144.3,157.7,145.8z"/>
				<path class="st3" d="M147.2,53c-1.9-3.5-3.6-8.2-7.1-10.6c-2.6-1.8-5.4-1.5-8.3-0.6c-5.5,1.7-10.8,4.4-15.9,6.9
					c-9,4.5-19.4,9.6-26.7,16.7C83.4,71,84,77.2,87,84.1c4.6,10.7,9.8,21.2,15.1,31.5c5.9,11.5,12.1,22.9,18.7,34
					c1.6,2.8,3.3,6.1,7,5.7c1.8-0.2,3.5-1.5,5-2.4c2.9-1.6,5.8-3.1,8.6-4.9c1-0.6,0.2-2.1-0.8-1.6c-3.3,1.5-7,4.5-10.4,5.3
					c-6.2,1.5-8.8-5.5-11.3-9.9c-4.3-7.6-8.5-15.3-12.5-23c-3.9-7.5-7.6-15-11.2-22.6c-3.2-6.8-11.4-18.6-6.9-26
					c4-6.7,13.5-11,20.1-14.7c7.5-4.3,15.8-8.8,24.1-11.3c6.4-1.9,8.9,3.4,11.5,8.2c2,3.7,4,7.4,5.9,11.2c4.1,7.8,8,15.6,11.8,23.4
					c4.1,8.4,8.1,17,12,25.5c1.1,2.4,2.3,4.8,3.2,7.3c1.2,3.3,0.2,5.5-2.4,7.9c-4.1,3.9-10.4,6.3-15.7,7.9c-1.5,0.5-1,2.9,0.5,2.4
					c4.8-1.5,9.4-3.4,13.6-6.2c2.6-1.7,6.1-3.8,7-7.1c0.9-3.1-0.8-6.3-2-9c-2.5-5.6-5-11.2-7.6-16.8c-4.9-10.6-10.1-21-15.4-31.4
					C152.4,62.7,149.9,57.8,147.2,53z"/>
				<path class="st3" d="M164.8,104.4c-8.7-17-18-33.7-27.3-50.5c-0.2-0.4-0.8-0.6-1.2-0.4c-12.6,6.3-25.5,12.8-37.4,20.3
					c-2.6,1.7-4.8,3.4-4.6,6.7c0.3,5.5,4.9,11.7,7.3,16.4c6.5,12.9,13.2,25.6,20.2,38.2c1.8,3.2,3.5,8.2,7.5,8.9
					c3.6,0.7,6.8-1.8,9.3-4c0.7-0.6-0.2-1.8-0.9-1.3c-3.9,2.7-8.9,4.7-12-0.3c-2.4-3.9-4.5-8-6.6-12c-4.4-8.1-8.6-16.2-12.8-24.3
					c-2.1-4.1-4.1-8.2-6.2-12.3c-2.3-4.7-6.6-10.6-0.4-14.4c7.4-4.6,15.2-8.7,22.8-12.8c3.5-1.9,7.3-4.7,11.1-5.9
					c1-1,2.1-1.2,3.2-0.4c0.7,1.1,1.3,2.3,1.9,3.5c0.9,1.7,1.9,3.5,2.8,5.2c4.3,8.2,8.7,16.3,13,24.5c4.1,8,8.6,15.9,12.3,24.1
					c1.1,2.4,2.1,5,0.4,7.6c-1.3,2-3.7,3.1-5.8,4.1c-2.6,1.3-5.1,2.5-7.4,4.4c-1.1,1,0.4,2.7,1.6,1.7c4.3-3.6,11.9-4.6,14.2-10.3
					C172.1,115.8,167.1,109,164.8,104.4z"/>
				<path class="st3" d="M116,54.9c-3.2,1.9-6.3,3.8-9.3,5.9c-1,0.7-0.2,2.3,0.9,1.7c3.2-1.7,6.4-3.5,9.6-5.4
					C118.6,56.3,117.4,54.1,116,54.9z"/>
			</g>
			<path class="st3" d="M149.6,184.5c-2.8,0.3-5-1.2-6.4-3.5c-0.2-0.4-0.8-0.1-0.6,0.3c1.1,2.8,4.3,4.2,7.1,3.8
				C150.1,185,150,184.4,149.6,184.5z"/>
			<path class="st3" d="M148.6,182.4c-3.3-1.4-5.4-3.6-7-6.7c-0.2-0.4-0.8-0.1-0.6,0.3c1.2,3.3,4.2,5.9,7.5,6.9
				C148.8,183,148.9,182.5,148.6,182.4z"/>
			<path class="st3" d="M162.6,152.3c-0.2-0.2-0.5,0.1-0.3,0.3c1.4,1.7,2.3,3.5,3.2,5.5c0.1,0.3,0.7,0.1,0.6-0.2
				C165.4,155.9,164.1,153.9,162.6,152.3z"/>
			<path class="st3" d="M161.7,155.1c-0.2-0.2-0.5,0.1-0.3,0.3c1.7,1.9,2.8,4,3.3,6.4c0.1,0.5,0.9,0.3,0.8-0.2
				C164.8,159.2,163.6,156.9,161.7,155.1z"/>
			<path class="st3" d="M182.3,214.8c1.5,3.5,3.1,6.9,4.8,10.3c0.1,0.3,0.5,0.1,0.4-0.2c-1.5-3.5-3-7-4.7-10.4
				C182.6,214.2,182.1,214.4,182.3,214.8z"/>
			<path class="st3" d="M179.2,212.4c1.2,3.3,2.4,6.6,3.7,9.8c0.1,0.2,0.4,0.1,0.3-0.1c-1.1-3.3-2.2-6.6-3.4-9.9
				C179.7,211.8,179.1,212,179.2,212.4z"/>
			<path class="st3" d="M128,127.5c-0.2-0.4-0.8-0.1-0.6,0.3c1.1,2.7,2.6,5.5,4.4,7.8c0.2,0.2,0.5,0,0.4-0.3
				C130.8,132.7,129.4,130.1,128,127.5z"/>
			<path class="st3" d="M129,124.6c0.6,2.6,1.6,5.2,3,7.5c0.2,0.3,0.6,0.1,0.4-0.2c-1.2-2.4-2.1-4.8-2.7-7.4
				C129.6,124,128.9,124.2,129,124.6z"/>
			<path class="st3" d="M133.6,72.1c-2.6,0.7-5,2.1-7.2,3.5c-0.3,0.2-0.1,0.6,0.2,0.5c2.3-1.4,4.7-2.3,7.2-3.4
				C134.1,72.6,133.9,72,133.6,72.1z"/>
			<path class="st3" d="M136,73.8c-1.8,0.9-3.5,1.9-5.2,2.8c-0.3,0.2-0.1,0.7,0.3,0.5c1.8-0.9,3.6-1.7,5.3-2.7
				C136.7,74.2,136.4,73.6,136,73.8z"/>
			<path class="st3" d="M169,231.7c1.9,5.1,4,10.2,6.1,15.3c0.1,0.2,0.4,0.1,0.3-0.2c-2-5.1-3.8-10.3-5.9-15.4
				C169.4,231,168.9,231.3,169,231.7z"/>
			<path class="st3" d="M165.2,231.4c1.3,4.8,3,9.6,5.1,14.2c0.1,0.3,0.6,0.1,0.5-0.2c-1.9-4.6-3.5-9.3-4.9-14.1
				C165.7,230.8,165,230.9,165.2,231.4z"/>
			<path class="st3" d="M162.6,84.9c1.9,3.9,3.3,8,4.4,12.2c0.1,0.3,0.6,0.2,0.5-0.1c-0.8-4.3-2.3-8.5-4.3-12.4
				C163,84.2,162.4,84.5,162.6,84.9z"/>
			<path class="st3" d="M163,78c2,5.1,4.2,10.1,6.3,15.1c0.1,0.3,0.5,0.1,0.4-0.2c-2-5.1-4-10.2-6-15.3
				C163.5,77.2,162.8,77.6,163,78z"/>
		</g>
	</g>
	<g id="Capa_1_00000002384952459727431160000010098741478083197838_">
		<g>
			<g>
				<defs>
					<rect id="SVGID_00000148635804943695625930000015696596475789921170_" x="530.7" y="-31.2" width="213" height="233"/>
				</defs>
				<clipPath id="SVGID_00000101069029455864626480000012366643983915713442_">
					<use xlink:href="#SVGID_00000148635804943695625930000015696596475789921170_"  style="overflow:visible;"/>
				</clipPath>
				<g style="display:none;clip-path:url(#SVGID_00000101069029455864626480000012366643983915713442_);">
					<path class="st5" d="M672.5,224.9c50.9,0,92.2-41.3,92.2-92.3s-41.3-92.3-92.2-92.3c-50.9,0-92.2,41.3-92.2,92.3
						S621.6,224.9,672.5,224.9z"/>
					<path class="st6" d="M774.7,131.5c0-17.6-4.7-34.8-13.7-50s-21.9-27.8-37.4-36.6c-15.5-8.7-33.1-13.3-51-13.3
						c-17.9,0.2-35.1,4.7-50.5,13.6"/>
					<path class="st6" d="M678.3,217.7c14.7-1.2,28.8-6.4,40.9-14.9c12.1-8.5,21.7-20.2,28-33.8c6.2-13.6,8.8-28.6,7.5-43.5
						c-1.3-14.9-6.3-28.9-14.8-41.2"/>
					<path class="st6" d="M730.7,73c-10.2-10.2-22.9-17.4-37-20.9c-14.1-3.5-29-3.2-43.3,1c-14.2,4.1-27.3,11.9-37.8,22.5
						c-29.9,34.4-29.4,85.8-4.5,107.3"/>
					<path class="st6" d="M600.7,61.6c-12.5,12.5-21.4,28.1-26,45.2c-4.5,17.1-4.4,35.2,0.3,52.3c4.7,17.1,13.8,32.8,26.4,45.3
						s28.3,21.6,45.5,26.1"/>
					<line class="st7" x1="672" y1="65.2" x2="672" y2="89.2"/>
					<line class="st7" x1="704.5" y1="79.4" x2="698.9" y2="88.3"/>
					<line class="st7" x1="728" y1="102.9" x2="718.9" y2="108.1"/>
					<line class="st7" x1="727.5" y1="167.6" x2="718.4" y2="162.5"/>
					<line class="st7" x1="704.5" y1="191.4" x2="699" y2="182.5"/>
					<line class="st7" x1="639.5" y1="190.6" x2="645" y2="181.6"/>
					<line class="st7" x1="616.5" y1="166.7" x2="625.6" y2="161.5"/>
					<line class="st7" x1="616.3" y1="102.4" x2="625.4" y2="107.7"/>
					<line class="st7" x1="639.2" y1="78.6" x2="645.2" y2="87.3"/>
					<line class="st7" x1="603.3" y1="135" x2="626.1" y2="135"/>
					<line class="st7" x1="741.7" y1="135.2" x2="719" y2="135.2"/>
					<line class="st7" x1="671.8" y1="203.7" x2="671.8" y2="180.9"/>
					<line class="st8" x1="672.7" y1="112.8" x2="672.7" y2="141.8"/>
				</g>
			</g>
			<g>
				<defs>
					<rect id="SVGID_00000163762922509147795780000010463225913699459744_" x="530.7" y="-31.2" width="213" height="233"/>
				</defs>
				<clipPath id="SVGID_00000016757418799694691220000003836561186255658900_">
					<use xlink:href="#SVGID_00000163762922509147795780000010463225913699459744_"  style="overflow:visible;"/>
				</clipPath>
				<g style="clip-path:url(#SVGID_00000016757418799694691220000003836561186255658900_);">
					<polygon class="st10" points="652,126.2 653.2,144 661.6,143.3 663.3,138 670.2,136.7 670,129 670.3,124.5 					"/>
					<path class="st11" d="M563.2,63.4c0,0-31.7,65.2,6.4,88c0,0,20.9-61.4,3.5-85.9C573.2,65.6,572.6,55.7,563.2,63.4z"/>
					<path class="st11" d="M689.5,96.6c0,0,9.6,1.3,8.4,7.6s-0.2,23.9-5.8,23.7c-5.7-0.2-8.4,0-8.4,0s-4.5,2.6-1.3-28.3
						C682.4,95.9,689.5,96.6,689.5,96.6z"/>
					<path class="st2" d="M575.3,146.8c31.5-16,67.6-29.3,103.4-21.8c2.3,0.5,3.8-1.2,3.9-3l0,0c4-7.6,6.9-24.1-3.9-27.9
						c-5.1-1.8-11.4-1.3-16.7-1.9c-5.7-0.6-11.3-1.5-16.9-2.5c-23.3-4.3-45.8-12.1-66.9-23c-4.1-2.1-8.9,2.2-6.5,6.5
						c12.4,21.5,5.6,46.9-3.4,68.3C566.7,145.6,572.1,148.4,575.3,146.8z M633.8,97c0.5,0.1,1,0.2,1.5,0.3c-0.3,0.2-0.6,0.4-0.9,0.7
						C634.2,97.6,634,97.3,633.8,97z M624,117.9c-0.5,0.1-1.1,0.3-1.6,0.4c0.5-1,1-2,1.5-2.9C623.6,116.3,623.7,117.2,624,117.9z
						 M606.6,123c-0.3,0.1-0.6,0.2-1,0.3c0.1-0.2,0.2-0.3,0.2-0.5C606.1,122.9,606.3,122.9,606.6,123z M600.3,125.3
						c-0.8,0.3-1.6,0.6-2.4,0.9c0.2-0.6,0.5-1.1,0.7-1.7C599.1,124.9,599.7,125.1,600.3,125.3z"/>
					<path class="st3" d="M1009.4,175.7c-3.1-0.1-6.2-0.2-9.3-0.2c-22.6-0.3-45.3,1.1-67.8,1.6c-43.9,1-87.8,1.6-131.8,1.2
						c-22.6-0.2-45.2-0.6-67.7-1.2c-9.4-0.2-20.1-2.1-29.3,0.6c-5.1,1.5-9.8,3.7-15.1,4.6c-5.4,0.9-10.9,0.8-16.3,0.1
						c0.5-0.5,0.9-1,1.2-1.6c1.3-2.4,1.1-5.2-0.6-7.2c0.2-0.2,0.4-0.3,0.5-0.5c2.4-2.8,2.4-7-0.5-9.3c0.6-0.5,1.1-1.1,1.4-1.8
						c1.2-2.4,0.7-5-1.2-6.5c1.6-1.6,1.9-4.1,0.8-5.9c0.8-0.1,1.5-0.3,2.2-0.5c1.5-0.4,1.2-2.7-0.4-2.7c-3.4,0-7.1,1.1-10.2-0.9
						c-1.7-1.1-3.1-3.4-2.1-5.4c0.6-1.3,2-2.1,3.3-2.2c0.1,0.1,0.3,0.2,0.6,0.2c10.6,0.4,21.1-1,28.4,8.3c3.2,4,5.9,8.8,11.2,9.1
						c0.2,0.2,0.5,0.3,0.9,0.3c50.2,3.1,100.8,2.2,151.1,1.5c25.2-0.4,50.3-0.9,75.5-1.3c12.1-0.2,24.2-0.5,36.4-0.7
						c9.8-0.2,19.7,0,29.5-0.4c3.2-0.2,6.3-0.4,9.4-0.7c1.3-0.1,1.3-2,0-2.1c-3.1-0.2-6.3-0.3-9.4-0.4c-9.8-0.1-19.8,0.5-29.5,0.6
						c-12.1,0.2-24.2,0.4-36.4,0.6c-25.2,0.4-50.3,0.9-75.5,1.3c-50.4,0.8-100.7,0.2-151.1-1.6c-0.5,0-0.8,0.1-1.1,0.4
						c-5-1.5-6.7-6.8-10.1-10.3c-1.9-2-4.2-3.5-6.7-4.6c-5.7-2.5-12.2-3-18.5-2.4c0.4-2.9,0.3-5.9,0.3-8.9c3,0.1,6,0.1,9-0.1
						c0.7,0,1-0.8,0.7-1.2c0.3-0.3,0.6-0.6,0.9-0.9c3.3,0.4,6.7,0.3,10.1,0.4c0.7,0,1.2-0.5,1.4-1.1c2.7-6.8,3-14.1,0.8-21.1
						c-0.1-0.4-0.4-0.7-0.7-0.8c0.1-0.3,0-0.8-0.4-0.8c-2.3-0.5-5-0.6-7.6-0.4c-1.2,0.1-2.3,0.2-3.4,0.4l0,0
						c-0.4-0.3-0.9-0.5-1.4-0.4c-0.1-0.3-0.3-0.6-0.7-0.6c-18.3-3.8-36.7-5.7-54.7-11c-18.4-5.4-35.7-12.8-52.8-21.2
						c-0.2-0.1-0.5-0.2-0.7-0.4c-0.8-0.4-1.6-0.2-2.2,0.4c-0.1,0-0.2,0-0.3,0c-0.5-0.9-1.8-1.4-2.6-0.4
						c-19.8,24.2-20.7,61.7,2.8,83.9c0.8,0.8,1.8,0,1.8-0.8c0.2,0,0.3-0.1,0.5-0.2c16.3-9.5,33.9-16.5,52.4-20.4
						c8.7-1.8,17.5-3,26.3-3.4c0.2,5.6,0.9,12,2.5,17.4c-1.1,0.6-2,1.4-2.6,2.6c-1.2,2.5-0.3,4.8,1.3,6.5c-2.2,2.5-1.9,6.3,0.2,8.9
						c0.4,0.6,0.9,1,1.4,1.4c-1.5,1.8-1.8,4.7-1,7c0.5,1.4,1.3,2.5,2.3,3.5c-1.5,2.1-1.2,5.3,0.1,7.5c1.8,3.2,5.5,4.5,9,4.4
						c1.5-0.1,3.1-0.4,4.6-1c0.2,0.4,0.5,0.7,1.1,0.8c10.6,1.7,20.7,0.7,30.8-2.8c11.8-4.1,25.2-2,37.6-1.8
						c45.6,1.1,91.2,1.3,136.8,0.6c22.2-0.3,44.5-0.9,66.7-1.4c19.5-0.5,39.2-0.2,58.7-1.4c3.1-0.2,6.2-0.4,9.2-0.7
						C1010.9,178,1011,175.8,1009.4,175.7z M666.8,136.4c-0.1,0-0.2,0.1-0.3,0.1c-3.4-1.1-6.8,2.8-6,6.4c0,0,0,0,0,0.1
						c-1.7-0.2-3.8-0.2-5.6,0.3c0.2-5.5-0.4-11.5-1.5-16.8c0.1,0,0.2,0,0.4,0c5-0.2,10,0.1,15,0.3c0,3.1,0,6.2,0.4,9.2
						C668.4,136.1,667.6,136.2,666.8,136.4z M686.4,103.6c1.8-0.1,3.7-0.3,5.4-0.7c0,0.2-0.1,0.4,0,0.7c1.6,6.3,1.4,12.5-0.7,18.6
						c-2.5,0.1-5,0.1-7.5,0.4c1.4-2.4,2.1-5.4,2.2-8.5l0,0c0.1-3.7-0.6-7.5-2.1-10.5C684.6,103.6,685.5,103.6,686.4,103.6z
						 M569.5,147.7c-17.2-23.1-19.4-53.3-0.9-76.6c2.1,8,3.7,16,4.6,24.2c0,0,0,0-0.1,0c-2.2,1.2-5,1.6-7.3,0.9
						c-0.6-0.2-1,0-1.3,0.4c-0.5-0.4-1.2-0.4-1.6,0.3c-4.1,8.2-4.1,18.1,1.3,25.7c0.2,0.2,0.4,0.4,0.6,0.4c0.1,0.6,0.5,1,1.2,1
						c2.5-0.3,4.7-0.3,7.1,0.4c-0.4,3.2-0.8,6.4-1.3,9.5l0,0c-0.6,4-1.3,8-2.1,12C569.7,146.4,569.6,147,569.5,147.7z M573.4,122.1
						c-1.6-0.8-3.3-1.2-5.1-1.2c3.1-6.7,1.5-15.4-1.6-21.9c1.1,0.1,2.2,0.1,3.3-0.2c1.5-0.4,2.4-1.1,3.4-2.1c0.4,4.3,0.7,8.7,0.7,13
						C574,113.8,573.7,118,573.4,122.1z M566,121.1c-0.1,0-0.2,0-0.4,0.1c0,0-0.1,0-0.1,0.1c-3.5-7-4.4-14.4-1.5-21.6
						C567.8,106.9,567.1,113.4,566,121.1z M651.6,123.2c-2.8,0.1-5.6,0.3-8.3,0.6l0,0h-0.1c-6.2,0.6-12.4,1.5-18.5,2.8
						c-18.5,3.8-36.2,10.6-52.4,20.1c3.4-10.2,5-21.1,5.3-32.2c0.3-13.9-1.6-28-5-41.1l0,0c-0.1-0.6-0.3-1.2-0.5-1.8
						c16.2,8.8,33.8,15.6,51.5,20.8c17.9,5.2,37.7,10.2,56.5,9.7c0,0.1,0,0.2,0,0.3c1.3,3.8,2.6,7.2,2.5,11.3c-0.1,4-1.8,7.3-2.7,11
						c-6.1-1.7-12.6-2.1-19.1-2h-0.1l0,0C657.5,122.9,654.5,123,651.6,123.2z M655.1,146.2c1.5-0.8,3.5-0.6,5.1-0.8
						c0.4,0,0.7-0.3,0.9-0.6c1.8,3.5,6.2,4.9,10.2,4.8c2.4,2.2-2.4,4.9-4,5c-0.8,0.1-1.6,0-2.5-0.1c-2.2-0.2-4.4-0.6-6.6-1.2
						C655.5,152.6,649.8,148.9,655.1,146.2z M654,154.8c0.8,0.5,1.7,0.9,2.5,1.2c3.9,1.3,10.4,2.8,14.6,0.8c1.8,1.4,0.7,4.2-0.8,5.3
						c-1,0.7-2.3,0.9-3.4,1c-1.7,0.2-3.5,0.2-5.2,0C657.6,162.7,650.7,159.8,654,154.8z M656.3,165c2.4,0.9,5.2,1,7.6,1.1
						c2.3,0,5.1-0.2,7.3-1.2c0,0,0,0.1,0.1,0.1c4.1,5.5-4.1,8.7-8.2,8.5C658.1,173.3,653.2,169.5,656.3,165z M657.5,175.6
						c1.3,0.6,2.6,0.9,4,1.1c3.1,0.4,6.8,0,9.6-1.8C675.6,183.2,653.3,186.2,657.5,175.6z"/>
					<path class="st1" d="M657.5,175.6c1.3,0.6,2.6,0.9,4,1.1c3.1,0.4,6.8,0,9.6-1.8C675.6,183.2,653.3,186.2,657.5,175.6z"/>
					<path class="st1" d="M663,173.5c-4.9-0.2-9.8-4-6.7-8.5c2.4,0.9,5.2,1,7.6,1.1c2.3,0,5.1-0.2,7.3-1.2c0,0,0,0.1,0.1,0.1
						C675.4,170.4,667.2,173.6,663,173.5z"/>
					<path class="st1" d="M670.3,162c-1,0.7-2.3,0.9-3.4,1c-1.7,0.2-3.5,0.2-5.2,0c-4-0.3-11-3.3-7.7-8.2c0.8,0.5,1.7,0.9,2.5,1.2
						c3.9,1.3,10.4,2.8,14.6,0.8C672.9,158.2,671.8,160.9,670.3,162z"/>
					<path class="st1" d="M667.4,154.7c-0.8,0.1-1.6,0-2.5-0.1c-2.2-0.2-4.4-0.6-6.6-1.2c-2.9-0.8-8.5-4.6-3.2-7.2
						c1.5-0.8,3.5-0.6,5.1-0.8c0.4,0,0.7-0.3,0.9-0.6c1.8,3.5,6.2,4.9,10.2,4.8C673.9,151.9,669,154.6,667.4,154.7z"/>
					<path class="st3" d="M957,172.1c-3.6,1.5-9,1.1-12.8,0.6c-0.5-0.1-0.3-0.8,0.1-0.8c2.1,0,4.2,0.2,6.3,0.2s4.3-0.5,6.3-0.3
						C957.2,171.8,957.2,172,957,172.1z"/>
					<path class="st3" d="M952.2,168.9c-5,0.3-9.9,0.2-14.9,1c-0.6,0.1-0.9-0.8-0.2-0.9c4.8-0.9,10.3-1.5,15.2-0.4
						C952.5,168.6,952.4,168.8,952.2,168.9z"/>
					<path class="st3" d="M700.1,174.3c-3.7,3.5-8.8,5.5-13.9,4.8c-0.5-0.1-0.4-0.9,0.1-0.9c5,0,9.3-1,13.2-4.4
						C699.9,173.5,700.4,174,700.1,174.3z"/>
					<path class="st3" d="M695.3,173.7c-3.5,1.9-7.3,3-11.3,3.2c-0.8,0-0.8-1.2,0-1.2c3.8-0.2,7.4-1.1,10.9-2.8
						C695.4,172.6,695.8,173.4,695.3,173.7z"/>
					<path class="st3" d="M586.6,133.1c4.4-2.9,10.1-4.5,15.3-5.2c0.4-0.1,0.6,0.5,0.2,0.6c-5.4,1.3-10,3.3-15.1,5.4
						C586.4,134.2,586.1,133.3,586.6,133.1z"/>
					<path class="st3" d="M582.6,131.5c4.6-2.3,9.4-4.2,14.4-5.3c0.4-0.1,0.6,0.5,0.2,0.7c-4.9,1.5-9.5,3.3-14,5.8
						C582.6,133,581.9,131.9,582.6,131.5z"/>
					<path class="st3" d="M638.2,99.6c4.5,0.5,9.1,1.3,13.6,2c0.4,0.1,0.3,0.7-0.1,0.6c-4.5-0.5-9.1-1-13.6-1.7
						C637.5,100.5,637.6,99.5,638.2,99.6z"/>
					<path class="st3" d="M632.1,100.2c4.5,2.2,9,3.3,14,3.2c0.5,0,0.5,0.7,0,0.8c-5,0.4-10-0.7-14.5-3
						C631,100.8,631.5,99.9,632.1,100.2z"/>
					<path class="st3" d="M557.4,147c1,5.7,4.7,10.2,10.7,11.1c0.4,0.1,0.3,0.8-0.1,0.7c-5.9-0.5-11.5-5.5-11.8-11.6
						C556.2,146.5,557.3,146.3,557.4,147z"/>
					<path class="st3" d="M550.4,149.3c1.8,4.5,4.7,8,9.1,10c0.6,0.3,0.1,1.1-0.5,0.8c-4.5-1.9-8.4-5.8-9.9-10.5
						C548.9,148.8,550.1,148.6,550.4,149.3z"/>
					<path class="st3" d="M588.5,65.3c-3.1-4.9-8.3-7.6-14.1-6.1c-0.4,0.1-0.6-0.6-0.2-0.7c5.6-1.8,12.7,0.7,15.3,6.2
						C589.8,65.3,588.9,65.9,588.5,65.3z"/>
					<path class="st3" d="M594,60.5c-3.4-3.4-7.4-5.6-12.3-5.8c-0.6,0-0.5-1,0.1-1c4.9,0.1,10,2.1,13.2,5.9
						C595.6,60.4,594.6,61.1,594,60.5z"/>
					<path class="st3" d="M712.7,186.5c7.4-0.6,14.7-1,22.1-1.6c0.5,0,0.5,0.7,0,0.7c-7.4,0.6-14.7,1.2-22.1,1.8
						C712.1,187.5,712.1,186.5,712.7,186.5z"/>
					<path class="st3" d="M716.6,191.1c3.9,0.1,7.9,0.1,11.8,0.2c0.5,0,0.5,0.7,0,0.7c-3.9,0-7.9,0.1-11.8,0.2
						C715.9,192.1,715.9,191.1,716.6,191.1z"/>
				</g>
			</g>
			<g>
				<defs>
					<rect id="SVGID_00000038373307403133759870000016567369420838079659_" x="530.7" y="-31.2" width="213" height="233"/>
				</defs>
				<clipPath id="SVGID_00000136386014059777039430000011777141101278991233_">
					<use xlink:href="#SVGID_00000038373307403133759870000016567369420838079659_"  style="overflow:visible;"/>
				</clipPath>
				<path style="clip-path:url(#SVGID_00000136386014059777039430000011777141101278991233_);fill:#F8EFE5;" d="M1000,155
					c-9.8,0.5-19.8,0.2-29.5,0.4c-12.1,0.2-24.2,0.5-36.4,0.7c-25.2,0.5-50.3,0.9-75.5,1.3c-50.3,0.8-100.9,1.6-151.1-1.5
					c-0.4,0-0.7-0.2-0.9-0.3c-5.3-0.3-8-5.1-11.2-9.1c-7.3-9.2-17.8-7.9-28.4-8.3c-0.2,0-0.4-0.1-0.6-0.2c-1.4,0-2.7,0.9-3.3,2.2
					c-1,2,0.4,4.3,2.1,5.4c3.1,2,6.8,0.9,10.2,0.9c1.6,0,1.9,2.3,0.4,2.7c-0.7,0.2-1.4,0.3-2.2,0.5c1.1,1.8,0.8,4.3-0.8,5.9
					c1.9,1.5,2.4,4.1,1.2,6.5c-0.4,0.7-0.9,1.3-1.4,1.8c2.9,2.3,3,6.5,0.5,9.3c-0.2,0.2-0.4,0.3-0.5,0.5c1.7,2,2,4.9,0.6,7.2
					c-0.3,0.6-0.8,1.1-1.2,1.6c5.4,0.8,10.9,0.8,16.3-0.1c5.3-0.9,10-3.1,15.1-4.6c9.2-2.7,19.9-0.9,29.3-0.6
					c22.6,0.6,45.2,1,67.7,1.2c43.9,0.4,87.8-0.2,131.8-1.2c22.5-0.5,45.2-2,67.8-1.6C1000.1,168.8,1000,161,1000,155z M684,175.7
					c3.8-0.2,7.4-1.1,10.9-2.8c0.5-0.2,1,0.5,0.5,0.8c-3.5,1.9-7.3,3-11.3,3.2C683.2,177,683.2,175.7,684,175.7z M700.1,174.3
					c-3.7,3.5-8.8,5.5-13.9,4.8c-0.5-0.1-0.4-0.9,0.1-0.9c5,0,9.3-1,13.2-4.4C699.9,173.5,700.4,174,700.1,174.3z M937.1,168.9
					c4.8-0.9,10.3-1.5,15.2-0.4c0.2,0,0.1,0.3,0,0.3c-5,0.3-9.9,0.2-14.9,1C936.8,169.9,936.5,169,937.1,168.9z M957,172.1
					c-3.6,1.5-9,1.1-12.8,0.6c-0.5-0.1-0.3-0.8,0.1-0.8c2.1,0,4.2,0.2,6.3,0.2s4.3-0.5,6.3-0.3C957.2,171.8,957.2,172,957,172.1z"/>
			</g>
			<g>
				<defs>
					<rect id="SVGID_00000060024573138379587440000006512607998339935658_" x="530.7" y="-31.2" width="213" height="233"/>
				</defs>
				<clipPath id="SVGID_00000174568009738367276000000004699963716909164979_">
					<use xlink:href="#SVGID_00000060024573138379587440000006512607998339935658_"  style="overflow:visible;"/>
				</clipPath>
				<path style="clip-path:url(#SVGID_00000174568009738367276000000004699963716909164979_);fill:none;" d="M1000.3,191
					c0,0-0.1-5.3-0.2-12.2c0-1.1,0-2.2,0-3.3"/>
			</g>
			<g>
				<defs>
					<rect id="SVGID_00000075871317740606615710000013809791547525375908_" x="530.7" y="-31.2" width="213" height="233"/>
				</defs>
				<clipPath id="SVGID_00000178184787858562859290000013569797311521317506_">
					<use xlink:href="#SVGID_00000075871317740606615710000013809791547525375908_"  style="overflow:visible;"/>
				</clipPath>
				<path style="clip-path:url(#SVGID_00000178184787858562859290000013569797311521317506_);fill:none;" d="M1000,155
					c0-1.1,0-2.2,0-3.1c0-3.6,0.1-6.2,0.3-7"/>
			</g>
		</g>
	</g>
	<path class="st15" d="M207.3,140.5c-2-0.1-4.1,0.1-6.1,0.4c-0.6-1.4-1.1-2.9-1.3-4.5c-0.3-2.3-3.6-3.2-4.4-0.6
		c-0.5,1.9-1.1,3.9-1.7,5.8c-1.2,0-2.4-0.1-3.6-0.3c-0.3-0.2-0.6-0.3-0.9-0.3c-0.3,0-0.7-0.1-1-0.1c-2.6-0.3-2.9,3.6-0.6,4.3
		c0.1,0,0.1,0,0.2,0.1c1.2,1.2,2.4,2.4,3.7,3.5c-0.7,2.3-1.5,4.6-2.2,7c-0.7,2.2,2.2,3.5,3.7,2.2c1.6-1.4,3.3-2.9,4.9-4.3
		c1.5,1,3,1.9,4.5,2.9c1.5,0.9,3.2-0.3,3.3-1.9c0.2-2.4-0.4-4.6-1.2-6.7c1.4-1.2,2.8-2.4,4.2-3.7
		C210.4,142.9,209.1,140.6,207.3,140.5z"/>
	<path class="st3" d="M210.5,141.1c-1.5,0-3.1,0-4.6,0c-1.2,0-2.3-0.1-3.4,0.4c-0.9-2.6-2-5.1-3.4-7.4c-0.3-0.5-1-0.5-1.3,0
		c-1.5,2.4-2.9,5-3.6,7.7c-2.5-0.5-5.2-0.3-7.7-0.3c-0.7,0-1,0.9-0.6,1.4c1.8,2,3.7,3.8,6,5.3c-1.3,2.6-1.8,5.7-2.5,8.5
		c-0.1,0.5,0.4,1.2,0.9,0.9c2.9-1.2,5.4-2.9,7.5-5.2c0,0,0,0,0,0c2.1,1.9,4.6,3.6,7,5.2c0.5,0.3,1.2-0.1,1.2-0.7
		c0.2-2.6,0.2-5.5-0.5-8c0.1,0,0.1,0,0.2-0.1c2.4-1.6,4.3-3.9,5.7-6.3C211.6,141.8,211.2,141.1,210.5,141.1z M204.5,147.4
		c-0.1,0.1-0.2,0.2-0.2,0.3c-0.3,0-0.6,0.3-0.6,0.7c0.2,2.4,0.6,4.7,0.6,7c-2.1-1.4-4.2-2.8-6.3-4.1c-0.1-0.1-0.2-0.1-0.4-0.1
		c-0.3-0.3-0.7-0.4-1.1,0c-1.6,1.7-3.4,3.1-5.4,4.1c0.7-2.4,1.5-4.9,1.5-7.4c0.3-0.3,0.3-0.9-0.1-1.3c-1.6-1.2-3-2.4-4.4-3.7
		c2,0,4,0,6-0.4c0.2,0,0.3-0.2,0.3-0.3c0.1,0,0.2-0.1,0.3-0.2c1.2-2.1,2.2-4.2,3.5-6.2c1,2,1.9,4.1,2.6,6.2c0.3,0.8,1.3,0.7,1.6,0.1
		c0.1,0,0.1,0.1,0.2,0.1c0.1,0,0.1,0.1,0.2,0.1c0,0,0.1,0,0.1,0c0.9,0.3,1.9,0.2,2.8,0.3c1,0.1,2,0.1,3.1,0.1
		C207.7,144.6,206.3,146.1,204.5,147.4z"/>
	<path class="st3" d="M200.1,143.4c-0.7-1.2-1.3-2.4-2-3.6c-0.1-0.2-0.4,0-0.3,0.2c0.6,1.2,1.3,2.5,1.9,3.7
		C199.8,143.9,200.2,143.7,200.1,143.4z"/>
	<path class="st3" d="M198.9,144.9c-0.6-1.2-1.3-2.5-1.9-3.7c-0.1-0.2-0.4,0-0.3,0.2c0.6,1.3,1.2,2.5,1.8,3.7
		C198.6,145.4,199.1,145.2,198.9,144.9z"/>
	<path class="st3" d="M187.7,151.3c-0.9,2.2-1.7,4.5-2.5,6.7c-0.1,0.2,0.3,0.3,0.4,0.1c0.9-2.2,1.8-4.4,2.7-6.7
		C188.3,151.1,187.8,151,187.7,151.3z"/>
	<path class="st3" d="M186.9,149.7c-1.4,2.3-2.6,4.7-3.6,7.2c-0.1,0.2,0.3,0.4,0.4,0.2c1.1-2.5,2.3-4.8,3.7-7.1
		C187.5,149.7,187.1,149.4,186.9,149.7z"/>
	<path class="st15" d="M176,61.3c0.1-1.4,0-2.8-0.1-4.2c1-0.4,2-0.7,3.1-0.8c1.6-0.1,2.3-2.4,0.5-3c-1.3-0.4-2.6-0.8-3.9-1.3
		c0-0.8,0.1-1.6,0.3-2.4c0.1-0.2,0.2-0.4,0.2-0.6c0-0.2,0.1-0.5,0.1-0.7c0.3-1.8-2.4-2-3-0.5c0,0,0,0.1,0,0.1
		c-0.9,0.8-1.7,1.6-2.5,2.4c-1.6-0.6-3.1-1.1-4.7-1.7c-1.5-0.6-2.5,1.4-1.6,2.5c0.9,1.2,1.9,2.3,2.8,3.5c-0.7,1-1.4,2-2.1,3
		c-0.7,1,0.1,2.2,1.2,2.3c1.7,0.2,3.1-0.1,4.6-0.7c0.8,1,1.6,2,2.4,3C174.2,63.4,175.8,62.5,176,61.3z"/>
	<path class="st3" d="M175.5,63.5c0-1.1,0.1-2.1,0.1-3.2c0-0.8,0.1-1.6-0.2-2.3c1.8-0.6,3.5-1.3,5.2-2.1c0.4-0.2,0.4-0.7,0-0.9
		c-1.6-1.1-3.4-2.1-5.2-2.7c0.4-1.7,0.3-3.5,0.4-5.3c0-0.5-0.6-0.7-0.9-0.4c-1.4,1.2-2.7,2.5-3.8,4c-1.7-0.9-3.9-1.3-5.7-1.9
		c-0.3-0.1-0.8,0.2-0.7,0.6c0.7,2,1.8,3.8,3.4,5.2c0,0,0,0,0,0c-1.4,1.4-2.6,3-3.7,4.7c-0.3,0.4,0.1,0.8,0.4,0.8
		c1.8,0.2,3.7,0.2,5.5-0.2c0,0,0,0.1,0.1,0.1c1,1.7,2.5,3,4.2,4C174.9,64.2,175.5,63.9,175.5,63.5z M171.3,59.2
		c-0.1-0.1-0.1-0.1-0.2-0.2c0-0.2-0.2-0.4-0.5-0.4c-1.6,0.1-3.2,0.3-4.8,0.2c1-1.4,2-2.8,3-4.2c0.1-0.1,0.1-0.2,0-0.2
		c0.2-0.2,0.3-0.5,0-0.7c-1.1-1.1-2-2.4-2.7-3.8c1.6,0.5,3.3,1.1,5,1.2c0.2,0.2,0.6,0.2,0.9-0.1c0.8-1,1.7-2,2.7-2.9
		c-0.1,1.4-0.1,2.8,0.1,4.1c0,0.1,0.1,0.2,0.2,0.2c0,0.1,0,0.2,0.1,0.2c1.4,0.8,2.8,1.6,4.2,2.5c-1.4,0.6-2.8,1.2-4.3,1.7
		c-0.5,0.2-0.5,0.9-0.1,1.1c0,0,0,0.1-0.1,0.1c0,0,0,0.1-0.1,0.1c0,0,0,0.1,0,0.1c-0.2,0.6-0.2,1.3-0.3,1.9
		c-0.1,0.7-0.1,1.4-0.1,2.1C173.1,61.5,172.2,60.5,171.3,59.2z"/>
	<path class="st3" d="M174.1,56.3c0.8-0.4,1.7-0.8,2.5-1.3c0.1-0.1,0-0.2-0.1-0.2c-0.9,0.4-1.7,0.8-2.6,1.2
		C173.8,56.1,174,56.4,174.1,56.3z"/>
	<path class="st3" d="M173.1,55.5c0.9-0.4,1.7-0.8,2.6-1.2c0.1-0.1,0-0.2-0.1-0.2c-0.9,0.4-1.7,0.8-2.6,1.1
		C172.8,55.3,172.9,55.5,173.1,55.5z"/>
	<path class="st3" d="M169,47.6c-1.5-0.7-3-1.3-4.5-1.9c-0.2-0.1-0.2,0.2-0.1,0.2c1.5,0.7,3,1.4,4.5,2C169.1,48,169.2,47.7,169,47.6
		z"/>
	<path class="st3" d="M170.1,47.1c-1.5-1-3.2-1.9-4.8-2.6c-0.1-0.1-0.2,0.2-0.1,0.2c1.7,0.8,3.2,1.7,4.8,2.7
		C170.1,47.5,170.3,47.2,170.1,47.1z"/>
	<path class="st3" d="M108.5,147.6c-0.4-2.2-0.8-4.4-1.1-6.6c-0.1-0.8-0.9-1.6-1.8-1c-0.1,0-0.1,0.1-0.2,0.1c-0.3,0-0.5,0.2-0.7,0.4
		c-1.8,1.1-3.6,1.9-5.6,2.7c-0.7,0.3-0.4,1.5,0.4,1.5c1.2-0.1,2.3-0.4,3.4-0.8c-4.2,7.9-8.9,15.5-14.2,22.7
		c-2.3-3.4-4.6-6.9-6.7-10.5c-0.3-0.6-1.3-0.8-1.8-0.2c-3,3.7-5.8,7.6-8.4,11.7c-1.5-3.6-2.9-7.2-4.4-10.7c-0.3-0.8-1.4-0.6-1.8,0
		c-2.3,3.4-4.2,6.8-5.9,10.5c-0.3,0.7,0.6,1.3,1,0.6c1.6-2.9,3.5-5.8,5.5-8.5c1.4,3.6,2.9,7.2,4.3,10.8c0.4,0.9,1.5,1.2,2.1,0.3
		c2.6-4.1,5.3-8,8.3-11.8c2.1,3.6,4.4,7.1,6.8,10.6c0.5,0.8,1.5,0.7,2,0c5.9-7.9,11.1-16.2,15.7-24.9c0.2,1.3,0.4,2.6,0.7,3.9
		C106.6,149.8,108.8,149.1,108.5,147.6z"/>
	<path class="st3" d="M60.6,157.4c-1.4,1.8-2.6,3.7-4,5.6c-0.1,0.2,0.2,0.4,0.3,0.2c1.4-1.8,2.7-3.7,4.1-5.5
		C61.3,157.4,60.8,157.1,60.6,157.4z"/>
	<path class="st3" d="M57.5,155c-1.4,1.7-2.9,3.2-4.6,4.6c-0.2,0.2,0.1,0.5,0.3,0.4c1.7-1.3,3.3-2.8,4.7-4.5
		C58.1,155.2,57.7,154.8,57.5,155z"/>
	<path class="st3" d="M97.7,162.9c-1.1,2-2.5,3.8-4.3,5.3c-0.2,0.2,0.1,0.5,0.3,0.3c1.8-1.5,3.3-3.2,4.4-5.3
		C98.3,162.8,97.8,162.6,97.7,162.9z"/>
	<path class="st3" d="M101,162.5c-0.5,2.4-1.6,4.5-3.3,6.2c-0.2,0.2,0.1,0.5,0.3,0.3c1.8-1.8,3-4,3.5-6.4
		C101.7,162.3,101.1,162.1,101,162.5z"/>
</g>
<g id="Capa_2">
</g>
</svg>
