<?xml version="1.0" encoding="utf-8"?>
<!-- Generator: Adobe Illustrator 26.3.1, SVG Export Plug-In . SVG Version: 6.00 Build 0)  -->
<svg version="1.1" id="Capa_1" xmlns="http://www.w3.org/2000/svg" xmlns:xlink="http://www.w3.org/1999/xlink" x="0px" y="0px"
	 viewBox="0 0 44 50" style="enable-background:new 0 0 44 50;" xml:space="preserve">
<style type="text/css">
	.st0{fill-rule:evenodd;clip-rule:evenodd;fill:#E73E11;}
	.st1{opacity:0.7;fill-rule:evenodd;clip-rule:evenodd;fill:#E73E11;enable-background:new    ;}
	.st2{fill:none;stroke:#F8EFE5;stroke-linecap:round;stroke-linejoin:round;}
	.st3{fill:#F8EFE5;}
</style>
<path class="st0" d="M19.6,5c5,0.3,8.3,3.8,11.9,6.7c5,4,12.6,6.9,12.5,12.7c-0.2,6.5-6.3,11.9-13.1,15c-7.2,3.3-16.5,5.3-23.3,1.4
	c-6.3-3.6-5-11.4-5.4-17.8c-0.3-4.6-0.3-9.4,3.2-13C8.8,6.5,14.2,4.7,19.6,5z"/>
<path class="st1" d="M42,3c0.8,1.5,1.1,3.5-0.2,4.7s-3.2,0.7-4.7-0.2c-1.4-0.8-2.6-2.3-2.2-3.9c0.3-1.5,2-2.2,3.5-2.3
	C39.9,1.3,41.4,1.8,42,3z"/>
<path class="st2" d="M6,14c-2.8,0-5-2.2-5-5s2.2-5,5-5s5,2.2,5,5S8.8,14,6,14z"/>
<path class="st3" d="M34,50c-1.1,0-2-0.9-2-2s0.9-2,2-2s2,0.9,2,2S35.1,50,34,50z"/>
</svg>
